<?xml version="1.0" standalone="no"?>
<!DOCTYPE svg PUBLIC "-//W3C//DTD SVG 1.1//EN" "http://www.w3.org/Graphics/SVG/1.1/DTD/svg11.dtd" >
<svg xmlns="http://www.w3.org/2000/svg">
<metadata></metadata>
<defs>
<font id="pslxthaicommonbold" horiz-adv-x="0" >
<font-face units-per-em="2048" ascent="1638" descent="-410" />
<missing-glyph horiz-adv-x="524" />
<glyph unicode="&#xe4f;&#x22;" />
<glyph unicode="&#xe24;&#xe32;" horiz-adv-x="1314" d="M502 -307v932q0 49 -38 76.5t-91 27.5q-109 0 -137 -86q53 -27 86 -70q-66 -29 -66 -102v-326q0 -70 37 -69q-10 16 -10 39q0 35 24.5 58.5t61.5 23.5t61.5 -23.5t24.5 -58.5q0 -59 -58.5 -94t-144.5 -31t-133 48t-47 118v311q0 70 67 106q-33 23 -104 48q29 98 122 154 t216 56q68 0 125 -15t99 -44t65.5 -69.5t23.5 -94.5v-915h-184zM1069 -307v952q0 84 -94 86q-86 4 -90 -49q-2 -27 24 -35q-51 -49 -110 -49q-41 0 -68 20q-35 23 -33 58q0 31 22.5 58.5t59.5 49t88.5 34.5t108.5 13q123 0 199.5 -51t76.5 -145v-942h-184z" />
<glyph unicode="&#xe26;&#xe32;" horiz-adv-x="1411" d="M596 -307v932q0 104 -119 104q-98 0 -127 -86q53 -27 86 -70q-66 -29 -65 -102l4 -326q2 -150 -180 -155q-86 -4 -144.5 30.5t-58.5 94.5q0 35 24.5 58.5t61.5 23.5t61.5 -23.5t24.5 -58.5q0 -23 -10 -39q37 0 36 76l-4 315q0 70 68 106q-33 23 -104 48q29 98 116.5 154 t210.5 56q135 0 219 -58t84 -165v-915h-184zM1159 -307v952q0 84 -94 86q-86 4 -90 -49q-2 -27 24 -35q-51 -49 -110 -49q-41 0 -68 20q-35 23 -33 58q0 31 23 58.5t59.5 49t88 34.5t108.5 13q123 0 199.5 -51t76.5 -145v-942h-184z" />
<glyph unicode="fi" />
<glyph unicode="fl" />
<glyph unicode=" "  horiz-adv-x="524" />
<glyph unicode="&#x09;" horiz-adv-x="524" />
<glyph unicode="&#xa0;" horiz-adv-x="524" />
<glyph unicode="!" horiz-adv-x="493" d="M371 879q0 -47 -37 -170q-45 -147 -68 -361h-43q-10 106 -26.5 196.5t-38.5 164.5q-37 127 -37 170q0 147 125 147t125 -147zM373 104q0 -51 -37 -86.5t-90 -35.5t-89 35.5t-36 86.5t37 89t88 38q53 0 90 -37t37 -90z" />
<glyph unicode="&#x22;" horiz-adv-x="823" d="M700 920q0 -53 -65 -320h-60q-68 270 -65 320q2 106 94 106q96 0 96 -106zM315 920q0 -29 -65 -320h-62q-66 291 -65 320q2 106 96 106q96 0 96 -106z" />
<glyph unicode="#" horiz-adv-x="741" d="M735 618h-143l-29 -198h131l-2 -109h-143l-45 -311h-115l43 311h-168l-43 -311h-117l43 311h-141l2 109h156l29 198h-144l2 109h156l45 311h113l-43 -311h167l46 311h114l-43 -311h131zM307 618l-26 -198h168l26 198h-168z" />
<glyph unicode="$" horiz-adv-x="741" d="M700 295q0 -150 -94 -219q-70 -55 -207 -76v-135h-82v135q-51 2 -112.5 18.5t-136.5 44.5v232l32 -2q61 -219 215 -248v373q-272 131 -272 319q0 119 90 193q78 61 184 67v119h82v-115q141 -20 236 -77v-209h-31q-61 213 -205 237v-319q154 -80 211 -131q90 -84 90 -207z M315 956q-131 -31 -131 -135q0 -98 131 -147v282zM537 207q0 59 -37 96q-10 10 -36 27.5t-65 40.5v-326q138 21 138 162z" />
<glyph unicode="%" horiz-adv-x="1484" d="M1303 371q0 -123 -76 -242q-92 -150 -236 -149q-88 0 -142 57t-54 139q0 145 108 266q102 111 217 111q183 0 183 -182zM496 -12h-82l514 915l-2 2q-82 -37 -168 -37q-20 0 -68 9q8 -143 -69 -281q-92 -160 -248 -160q-78 0 -133.5 54.5t-55.5 138.5q0 174 125 286 q102 92 197 93q59 0 125 -41t143 -41q82 0 158 37q57 29 65 43q18 23 27 22h57zM1253 365q0 113 -79 112q-76 0 -146 -149q-59 -129 -59 -191q0 -90 78 -90q74 0 143 117q63 107 63 201zM641 844q0 53 -43 65q-8 4 -24.5 15.5t-22.5 11.5q-61 0 -131 -143q-66 -135 -66 -209 q0 -80 74 -80q82 0 152 129q61 115 61 211z" />
<glyph unicode="&#x26;" horiz-adv-x="1236" d="M1169 164q-16 -27 -32.5 -52.5t-32.5 -52.5q-72 -84 -172 -84q-72 0 -133 43q-16 10 -40 33t-54 55q-162 -129 -330 -129q-113 0 -195 66q-88 70 -88 197q0 199 291 335q-78 133 -78 213q0 123 94 187q76 51 195 51q125 0 194 -59q55 -49 56 -121q0 -139 -226 -217 l224 -318q113 137 112 209q0 43 -30 55q-14 4 -68 11v37h307v-37q-74 -6 -108 -60q-76 -123 -178 -264q102 -135 178 -135q53 0 84 55l30 -18v0zM694 793q0 66 -39 122q-39 61 -96 62q-80 0 -80 -88t111 -217q104 35 104 121zM672 147q-39 51 -87 120t-106 157l-71 108 q-109 -66 -109 -147q0 -88 68 -184q74 -111 170 -111q53 0 135 57z" />
<glyph unicode="'" horiz-adv-x="413" d="M303 920q0 -29 -65 -320h-62q-66 291 -65 320q0 106 96 106t96 -106z" />
<glyph unicode="(" horiz-adv-x="491" d="M362 -139q-291 197 -290 549q0 354 290 551l103 2q-209 -233 -209 -553q0 -317 211 -553z" />
<glyph unicode=")" horiz-adv-x="491" d="M420 410q0 -354 -291 -551l-102 -2q209 233 209 553q0 317 -209 553l102 -5q291 -196 291 -548z" />
<glyph unicode="*" horiz-adv-x="741" d="M664 580q0 -31 -21.5 -51.5t-50.5 -20.5q-47 0 -82 49q-57 88 -115 117l-10 -6q4 -39 14.5 -73t20.5 -60.5t19.5 -46t9.5 -31.5q0 -78 -78 -78q-70 0 -70 82q0 33 29 80q29 51 28 127l-10 6q-29 -20 -57.5 -48t-54.5 -67q-37 -55 -82 -55q-20 0 -43 18q-27 20 -27 53 q0 51 59 76q10 4 33 6t57 5q53 0 101 38l2 11q-49 23 -178 41q-74 10 -74 77q0 70 63 70q59 0 97 -61q45 -76 106 -105l10 4q4 72 -30 127q-33 53 -33 88q0 31 22.5 52.5t53.5 21.5q72 0 71 -80q0 -29 -30 -84q-29 -53 -25 -125l12 -4q29 20 55.5 50t53.5 71q33 51 78 51 q35 0 55.5 -25.5t20.5 -50.5q0 -53 -62 -75q-14 -4 -86 -9q-51 0 -102 -38v-13q20 -10 62 -20t108 -19q80 -12 80 -75z" />
<glyph unicode="+" horiz-adv-x="778" d="M451 315v-286h-123v286h-297v123h297v287h123v-287h297v-123h-297z" />
<glyph unicode="," horiz-adv-x="372" d="M307 76q0 -70 -47 -142q-41 -59 -86 -84l-61 27q68 55 82 127q-4 -2 -19 -2q-41 0 -71.5 30.5t-30.5 71.5q0 43 30.5 74t77.5 31q51 0 88 -38t37 -95z" />
<glyph unicode="-" horiz-adv-x="512" d="M61 307v123h390v-123h-390z" />
<glyph unicode="." horiz-adv-x="352" d="M281 104q0 -41 -32 -72.5t-73 -31.5t-72.5 31.5t-31.5 72.5t31.5 73t72.5 32t73 -32t32 -73z" />
<glyph unicode="/" horiz-adv-x="413" d="M98 -29h-133l350 1055h134z" />
<glyph unicode="0" horiz-adv-x="778" d="M713 256q0 -131 -97 -203q-88 -66 -225 -65q-137 0 -227 65q-98 72 -98 203v479q0 131 98 205q90 66 227 66q135 0 225 -66q96 -74 97 -205v-479v0zM516 756q0 141 -125 141q-127 0 -127 -141v-518q0 -141 127 -142q125 0 125 142v518z" />
<glyph unicode="1" horiz-adv-x="778" d="M178 0v63q78 4 103 17q45 20 45 82v680l-158 -105l-62 99l232 159h182v-833q0 -59 43 -82q27 -12 103 -17v-63h-488z" />
<glyph unicode="2" horiz-adv-x="778" d="M713 721q0 -102 -103 -199q-51 -41 -100 -80t-98 -80q-117 -100 -138 -200q98 45 181 45q10 0 55 -10q39 -8 65 -9q57 0 91 39q41 -66 41 -125q0 -113 -115 -112q-31 0 -94 28q-57 31 -97 31q-66 0 -155 -49h-180q2 205 118 354q37 49 215 203q115 102 115 186 q0 61 -36 100.5t-95 43.5q-51 4 -88 -15.5t-31 -37.5q16 -45 17 -72q0 -47 -30 -78t-73 -31t-74.5 35t-31.5 90q0 90 92 160q96 72 239 72q68 0 125.5 -20.5t98.5 -59.5t63.5 -91t22.5 -118z" />
<glyph unicode="3" horiz-adv-x="778" d="M723 289q0 -127 -88 -209q-94 -94 -254 -94q-143 0 -234 73q-82 68 -81 160q0 55 32.5 90t75.5 35q39 0 70.5 -31.5t31.5 -74.5q0 -25 -18 -72q-2 -10 7 -21.5t26.5 -19.5t39 -12t46.5 -2q59 6 97 57t40 123q2 82 -48 141.5t-124 69.5l2 39q176 47 166 194 q-4 61 -40 102.5t-93 47.5q-47 4 -85 -13.5t-34 -37.5q18 -45 18 -76q0 -43 -31.5 -75t-70.5 -32q-45 0 -76.5 34t-31.5 91q0 88 90 160q98 74 241 74q70 0 127.5 -20.5t97.5 -57.5t62.5 -87t22.5 -110q0 -127 -142 -205q158 -77 158 -241z" />
<glyph unicode="4" horiz-adv-x="778" d="M653 227v-100q0 -59 97 -64v-63h-398v63q98 4 99 72v90h-437v125l451 645h186v-633h111v-135h-109zM453 735l-265 -373h265v373z" />
<glyph unicode="5" horiz-adv-x="778" d="M709 1010q-131 -203 -338 -203q-23 0 -48.5 2t-54.5 6v-149q84 53 178 53q111 0 186 -69.5t75 -186.5v-178q0 -135 -87.5 -217t-242.5 -82q-145 0 -238 73q-86 66 -86 158q0 123 105 123q43 0 73.5 -30.5t30.5 -76.5q0 -37 -18 -71q-2 -8 8 -18.5t28.5 -18.5t43 -13.5 t49.5 -2.5q61 4 100 49t39 118v154q0 55 -38 93t-93 38q-125 0 -143 -139h-164v586q188 -45 319 -45q123 0 316 47z" />
<glyph unicode="6" horiz-adv-x="778" d="M715 330q0 -162 -87 -253t-237 -91q-137 0 -233 86q-92 86 -92 217v420q0 131 90 215q90 86 231 86t223 -74q76 -63 76 -158q0 -55 -31.5 -90t-74.5 -35q-41 0 -72 32t-31 77q0 41 15 72q6 16 -26 35.5t-73 17.5q-61 -4 -95 -50t-34 -102v-147q88 47 174 47 q135 0 206 -85t71 -220zM516 344q0 160 -125 160q-127 0 -127 -160v-80q0 -160 127 -160q125 0 125 160v80z" />
<glyph unicode="7" horiz-adv-x="778" d="M709 852q-129 -182 -187 -342q-72 -215 -76 -510h-204q0 510 284 846h-266q-98 0 -98 -101v-28h-96v278h645z" />
<glyph unicode="8" horiz-adv-x="778" d="M725 301q0 -72 -25.5 -130t-69.5 -99t-105.5 -63.5t-133.5 -22.5q-143 0 -239 86q-94 86 -95 229q0 143 140 236q-127 74 -127 194q0 59 22.5 110.5t64.5 88.5t101 58.5t133 21.5q72 0 130.5 -21.5t100.5 -58.5t65.5 -88t23.5 -111q0 -121 -125 -194q139 -93 139 -236z M520 745q0 68 -37 110t-92 42t-92 -42t-37 -110q0 -66 37 -107.5t92 -41.5q53 0 91 41.5t38 107.5zM526 295q0 174 -135 174q-137 0 -137 -174q0 -176 137 -176q135 0 135 176z" />
<glyph unicode="9" horiz-adv-x="778" d="M713 287q0 -66 -23.5 -121t-65.5 -95t-100.5 -62.5t-130.5 -22.5q-139 0 -223 73q-76 63 -76 158q0 57 31 91t76 34q41 0 72.5 -31.5t31.5 -77.5q0 -29 -16 -71q-6 -16 24.5 -36t73.5 -17q59 4 96 53q33 41 33 98v148q-98 -47 -176 -48q-133 0 -207 89q-70 82 -70 217 q0 166 87.5 255t240.5 89q141 0 230 -86q92 -86 92 -217v-420v0zM516 731q0 160 -125 160q-127 0 -127 -160v-80q0 -160 127 -159q125 0 125 159v80z" />
<glyph unicode=":" horiz-adv-x="372" d="M291 612q0 -41 -32 -72.5t-73 -31.5t-72.5 31.5t-31.5 72.5t31.5 73t72.5 32t73 -32t32 -73zM291 104q0 -41 -32 -72.5t-73 -31.5t-72.5 31.5t-31.5 72.5t31.5 73t72.5 32t73 -32t32 -73z" />
<glyph unicode=";" horiz-adv-x="372" d="M287 612q0 -41 -32 -72.5t-73 -31.5t-72.5 31.5t-31.5 72.5t31.5 73t72.5 32t73 -32t32 -73zM307 76q0 -70 -47 -142q-41 -59 -86 -84l-61 27q68 55 82 127q-4 -2 -19 -2q-41 0 -71.5 30.5t-30.5 71.5q0 43 30.5 74t77.5 31q51 0 88 -38t37 -95z" />
<glyph unicode="&#x3c;" horiz-adv-x="778" d="M41 319v113l696 332v-131l-538 -258l538 -256v-131z" />
<glyph unicode="=" horiz-adv-x="778" d="M31 438v123h717v-123h-717zM31 193v122h717v-122h-717z" />
<glyph unicode="&#x3e;" horiz-adv-x="778" d="M41 -12v131l539 256l-539 258v131l696 -332v-113z" />
<glyph unicode="?" horiz-adv-x="780" d="M719 733q0 -98 -98 -172q-98 -70 -99 -155v-107h-203v86q0 100 105 174q104 74 102 174q-2 66 -43 113t-106 51q-27 2 -52.5 -6t-43 -21.5t-26.5 -30t-7 -32.5q2 -6 15 -30.5t13 -45.5q0 -45 -32.5 -77.5t-77.5 -32.5q-49 0 -82 34.5t-33 94.5q0 98 96 178q98 80 248 80 q72 0 131.5 -19.5t102.5 -55.5t66.5 -87.5t23.5 -112.5zM545 113q0 -55 -35 -91t-88 -36t-90 35.5t-37 91.5q0 51 37 87t90 36t88 -35t35 -88z" />
<glyph unicode="@" horiz-adv-x="1380" d="M1221 575q0 -131 -74 -239q-82 -123 -211 -123q-66 0 -107 47q-31 35 -28 62h-4q-18 -29 -60 -62q-59 -41 -116 -47q-51 0 -91 33q-57 45 -57 155q0 115 74 228q90 141 227 141q68 0 109 -78l16 60h107l-99 -387q-10 -37 3.5 -68t50.5 -31q82 0 139 107q51 94 51 202 q0 141 -115 263q-125 131 -317 131q-178 0 -295 -127q-127 -139 -127 -381q0 -168 123 -295q125 -125 313 -125q137 0 303 72l19 -52q-186 -90 -320 -90q-274 0 -438 176q-137 143 -137 328q0 244 166 399q164 152 393 152q213 0 356 -129q146 -129 146 -322zM856 602 q0 96 -65 96q-66 0 -129 -75q-74 -88 -74 -213q0 -127 92 -127q55 0 104 79q56 86 72 240z" />
<glyph unicode="A" horiz-adv-x="1071" d="M543 0v37q82 6 94 14q25 10 25 43q0 41 -70 199h-334q-66 -172 -65 -193q0 -53 122 -63v-37h-301v37q55 10 86 49q10 14 24.5 46t35.5 79l329 813h41l330 -780q57 -131 80 -164q33 -45 84 -43v-37h-481zM420 711l-139 -361h288z" />
<glyph unicode="B" horiz-adv-x="991" d="M920 276q0 -111 -93 -184q-111 -92 -325 -92h-477v37q76 10 96 22q33 20 33 84v717q0 68 -39 88q-25 14 -90 19v37h458q385 0 385 -238q0 -104 -92 -166q-35 -23 -137 -57v-2q115 -18 186 -76q95 -74 95 -189zM623 768q0 190 -152 190q-80 0 -80 -71v-334q145 0 191 51 q41 45 41 164zM664 270q0 240 -228 240h-45v-373q0 -90 90 -90q183 0 183 223z" />
<glyph unicode="C" horiz-adv-x="1071" d="M1020 188q-193 -217 -414 -217q-250 0 -395 158q-137 143 -137 365q0 229 145 380q147 152 379 152q78 0 178 -37q102 -37 109 -37q41 0 67 70h41v-348h-37q-47 119 -129 200q-102 102 -217 103q-274 0 -274 -477q0 -221 63 -328q39 -70 119 -104q55 -25 107 -25 q186 0 350 182l45 -37v0z" />
<glyph unicode="D" horiz-adv-x="1071" d="M1024 516q0 -221 -127 -360q-141 -156 -408 -156h-469v37q123 0 123 98v731q0 61 -39 82q-20 12 -84 19v37h453q287 0 432 -158q119 -127 119 -330zM766 502q0 160 -49 276q-74 174 -240 174q-63 0 -82 -22q-10 -14 -10 -47v-746q0 -49 16.5 -67.5t67.5 -18.5 q297 0 297 451z" />
<glyph unicode="E" horiz-adv-x="991" d="M893 0h-868v37q74 6 96 22q33 20 33 84v717q0 68 -39 88q-25 14 -90 19v37h856v-299h-37q-25 150 -109 202q-70 45 -231 45q-63 0 -84 -10q-25 -12 -25 -59v-344q111 -2 164 41q61 51 76 180h39v-502h-39q-12 135 -70 186q-51 45 -170 45v-360q0 -55 35 -72 q25 -12 90 -12q283 0 389 264h43z" />
<glyph unicode="F" horiz-adv-x="907" d="M829 705q-29 137 -79 182q-72 66 -248 65q-66 0 -86.5 -11t-20.5 -58v-344q123 -2 176 65q29 41 52 156h36v-502h-36q-16 117 -50 162q-51 70 -178 69v-346q0 -66 43 -88q27 -14 121 -18v-37h-534v37q74 6 96 22q33 20 33 84v717q0 68 -39 88q-20 14 -90 19v37h841v-299 h-37z" />
<glyph unicode="G" horiz-adv-x="1155" d="M1120 389q-78 -10 -98 -27q-29 -25 -29 -110v-189q-49 -35 -178 -63q-63 -14 -118.5 -21.5t-104.5 -7.5q-260 0 -408 164q-129 145 -129 359q0 223 146 378q145 154 379 154q80 0 180 -37q102 -37 106 -37q39 0 70 70h39v-348h-37q-47 119 -129 200q-102 102 -217 103 q-274 0 -275 -481q0 -475 291 -476q154 0 154 109v156q0 66 -37 86q-25 12 -113 18v37h508v-37v0z" />
<glyph unicode="H" horiz-adv-x="1155" d="M623 0v37q76 10 96 22q37 23 37 84v340h-359v-340q0 -61 37 -84q20 -12 98 -22v-37h-501v37q74 10 94 24q33 20 33 82v717q0 68 -39 88q-20 12 -88 19v37h501v-37q-68 -2 -92 -19q-43 -20 -43 -88v-307h359v307q0 66 -41 88q-27 16 -92 19v37h503v-37q-66 -4 -90 -19 q-41 -23 -41 -88v-717q0 -61 37 -84q23 -12 94 -22v-37h-503z" />
<glyph unicode="I" horiz-adv-x="577" d="M29 0v37q80 10 100 22q39 20 39 84v717q0 68 -43 88q-29 16 -96 19v37h520v-37q-72 -4 -96 -17q-45 -20 -45 -90v-717q0 -63 41 -86q23 -14 100 -20v-37h-520z" />
<glyph unicode="J" horiz-adv-x="741" d="M711 967q-74 -6 -97 -23q-35 -29 -34 -115v-647q0 -326 -324 -325q-141 0 -209 84q-43 51 -43 104q0 55 37 88q29 27 70 27q33 0 65 -25q41 -31 41 -86q0 -31 -20.5 -54.5t-20.5 -41.5q0 -47 66 -47q96 0 96 129v825q0 70 -43 90q-25 12 -107 17v37h523v-37v0z" />
<glyph unicode="K" horiz-adv-x="1155" d="M643 0v37q117 6 117 31q0 20 -35 65l-270 338l-41 -37v-291q0 -61 37 -84q23 -12 94 -22v-37h-500v37q76 10 96 22q33 20 33 84v717q0 68 -39 88q-25 14 -90 19v37h502v-37q-74 -6 -96 -23q-37 -27 -37 -115v-317l340 340q37 37 37 66q0 35 -52 43q-6 4 -75 6v37h430v-37 q-111 -6 -205 -76q-68 -53 -273 -262l453 -561q23 -27 74 -31v-37h-500z" />
<glyph unicode="L" horiz-adv-x="991" d="M887 0h-858v37q76 10 94 22q33 20 33 84v717q0 68 -39 88q-25 16 -88 19v37h518v-37q-86 -2 -115 -21q-35 -29 -35 -117v-700q0 -57 41 -74q25 -10 90 -10q154 0 248 84q68 66 129 209h43z" />
<glyph unicode="M" horiz-adv-x="1400" d="M874 0v37q78 6 101 22q33 20 33 88v750h-4l-371 -897h-41l-371 874h-2v-690q0 -86 33 -113.5t117 -33.5v-37h-349v37q84 6 105 26q31 23 31 93v704q0 57 -27 79t-104 28v37h374l297 -701l297 701h375v-37q-74 -6 -96 -23q-35 -29 -35 -115v-655q0 -84 29 -108 q25 -16 102 -29v-37h-494z" />
<glyph unicode="N" horiz-adv-x="1071" d="M1040 967q-74 -10 -94 -35t-20 -84v-875h-43l-660 805h-4v-594q0 -78 30 -107.5t111 -39.5v-37h-335v37q74 8 101.5 29.5t27.5 89.5v704q-86 106 -125 107v37h313l514 -633h4v448q0 78 -28.5 110t-110.5 38v37h319v-37v0z" />
<glyph unicode="O" horiz-adv-x="1155" d="M1104 500q0 -233 -150 -381q-147 -147 -376 -148q-227 0 -379 148q-147 147 -148 381q0 236 156 385q152 141 371 141q221 0 370 -141q156 -149 156 -385zM840 500q0 195 -54 319q-68 158 -208 158q-141 0 -209 -158q-53 -129 -54 -319q0 -479 263 -480q262 1 262 480z " />
<glyph unicode="P" horiz-adv-x="907" d="M891 731q0 -147 -135 -225q-66 -39 -146 -47q-29 -4 -84 -6t-137 -2v-277q0 -84 27 -108q23 -16 104 -29v-37h-495v37q74 12 86 20q37 35 36 117v655q0 86 -32 113q-23 16 -90 25v37h477q389 -1 389 -273zM635 727q0 123 -41 174t-133 51q-72 0 -72 -53v-397 q139 -4 193 43q53 47 53 182z" />
<glyph unicode="Q" horiz-adv-x="1155" d="M1104 500q0 -96 -26.5 -179t-76 -150t-119 -112t-155.5 -67q78 -184 258 -185q29 0 98 19l11 -35q-147 -53 -277 -53q-86 0 -172 33q-174 63 -239 227q-170 49 -267 195q-88 131 -88 286q0 250 156 404q145 143 371 143q221 0 370 -141q156 -149 156 -385zM840 500 q0 195 -54 319q-68 158 -208 158q-141 0 -209 -158q-53 -129 -54 -319q0 -479 263 -480q262 1 262 480z" />
<glyph unicode="R" horiz-adv-x="1071" d="M758 0l-307 465h-41v-291q0 -84 28 -108q25 -16 103 -29v-37h-502v37q80 8 102 29q29 25 29 108v655q0 86 -35 115q-23 16 -96 23v37h477q420 0 420 -263q0 -119 -86 -184q-45 -37 -148 -68l299 -423q23 -29 60 -29v-37h-303zM682 739q0 213 -180 213q-57 0 -71.5 -11 t-20.5 -50v-379q154 4 208 43q64 45 64 184z" />
<glyph unicode="S" horiz-adv-x="825" d="M762 283q0 -121 -82 -205q-100 -106 -287 -107q-84 0 -162 27q-80 25 -92 25q-33 0 -45 -52h-43v367h43q66 -317 305 -318q115 0 160 76q27 41 27 90q0 68 -47 111q-33 29 -121 72l-99 47q-166 80 -221 178q-33 57 -32 139q0 104 57 180q86 113 270 113q70 0 144 -25 q78 -25 88 -24q41 0 49 51h45v-323h-41q-29 106 -90 176q-82 98 -203 98q-66 0 -106 -33q-51 -39 -52 -106q0 -31 6.5 -53.5t23.5 -42t47 -38t77 -42.5l217 -109q57 -27 100 -86q64 -77 64 -186z" />
<glyph unicode="T" horiz-adv-x="991" d="M901 705q-18 154 -115 213q-53 33 -170 38v-782q0 -88 31 -113q20 -18 115 -24v-37h-531v37q92 6 113 24q31 25 31 113v782q-117 -6 -170 -38q-96 -59 -117 -213h-43l6 299h891l2 -299h-43z" />
<glyph unicode="U" horiz-adv-x="1071" d="M1040 967q-68 -10 -88 -31q-27 -27 -26 -96v-473q0 -197 -84 -287q-102 -109 -293 -109q-195 0 -301 95q-53 47 -76 94q-27 61 -27 174v495q0 84 -28 113q-20 18 -92 25v37h501v-37q-84 -2 -108 -21q-37 -27 -37 -117v-495q0 -289 215 -289q264 0 264 322v452 q0 80 -29.5 112t-115.5 36v37h325v-37v0z" />
<glyph unicode="V" horiz-adv-x="1071" d="M1040 967q-59 -8 -83.5 -32t-49.5 -89l-338 -873h-41l-381 889q-27 66 -49 80q-20 16 -73 25v37h497v-37q-80 -6 -98 -13q-29 -10 -29 -49q0 -25 45 -129l195 -469l188 490q29 76 29 102q0 39 -33 53q-10 4 -34.5 8.5t-59.5 6.5v37h315v-37v0z" />
<glyph unicode="W" horiz-adv-x="1484" d="M1456 967q-76 -6 -102 -95l-297 -895h-39l-250 695h-10l-271 -695h-43l-313 895q-18 53 -37.5 71t-64.5 24v37h436v-37q-49 -2 -68 -13q-27 -12 -26 -49q0 -14 10 -49l176 -537h2l174 453l-51 143q-31 49 -107 52v37h463v-37q-55 -2 -77 -11q-29 -12 -29 -47 q0 -18 20 -80l158 -495h4l164 506q10 35 10 61q0 61 -102 66v37h270v-37v0z" />
<glyph unicode="X" horiz-adv-x="1071" d="M532 0v37q35 2 56.5 4t32.5 6q31 10 30 37q0 29 -30 78l-150 239l-57 -75q-139 -186 -140 -226q0 -53 121 -63v-37h-370v37q53 10 73 18q41 18 80 66l260 328l-295 432q-16 23 -27.5 37t-19.5 22q-27 23 -71 27v37h514v-37q-39 -4 -61.5 -6.5t-31.5 -4.5q-25 -8 -24 -38 q0 -20 22 -56l144 -223q63 88 100 141.5t47 69.5q23 35 23 65q0 31 -29 41q-23 8 -78 11v37h371v-37q-100 -10 -162 -72q-53 -51 -237 -309l270 -422q53 -84 86 -109q23 -16 59 -18v-37h-506z" />
<glyph unicode="Y" horiz-adv-x="1071" d="M1038 967q-33 -2 -51 -13q-33 -14 -51 -45l-283 -463v-272q0 -86 29 -111q20 -16 109 -26v-37h-517v37q88 10 109 26q31 25 31 111v217l-273 494q-45 80 -118 82v37h497v-37q-98 0 -112 -21q-8 -8 -9 -31q0 -12 35 -81l178 -345l166 275q57 94 58 137q0 39 -37 53 q-20 8 -88 13v37h327v-37v0z" />
<glyph unicode="Z" horiz-adv-x="991" d="M903 0h-862v25l567 927q-96 -4 -152.5 -6t-74.5 -4q-35 -4 -72 -12q-111 -33 -180 -232h-41l31 306h778v-25l-563 -928q293 -4 381 35q137 59 188 272h39z" />
<glyph unicode="[" horiz-adv-x="493" d="M100 -221v1229h346v-50h-92q-76 0 -92 -34q-8 -18 -8 -70v-948q0 -41 10 -58q14 -20 64 -20h118v-49h-346z" />
<glyph unicode="\" horiz-adv-x="413" d="M313 -29l-350 1055h137l351 -1055h-138z" />
<glyph unicode="]" horiz-adv-x="493" d="M47 -221v49h119q51 0 65 20q8 10 9 58v948q0 82 -37 96q-16 8 -62 8h-94v50h348v-1229h-348z" />
<glyph unicode="^" horiz-adv-x="778" d="M582 461l-191 405l-192 -405h-131l264 543h119l264 -543h-133z" />
<glyph unicode="_" horiz-adv-x="778" d="M0 -205v103h778v-103h-778z" />
<glyph unicode="`" horiz-adv-x="493" d="M283 784l-211 131q-59 37 -60 78q0 66 72 66q43 0 78 -41l203 -234h-82z" />
<glyph unicode="a" horiz-adv-x="741" d="M725 63q-74 -84 -164 -83q-102 0 -125 104q-100 -104 -235 -104q-61 0 -109 36q-55 43 -55 121q0 102 121 174q78 43 278 105v108q0 131 -131 131q-37 0 -61.5 -17t-24.5 -36q0 -12 21.5 -41t21.5 -61q0 -29 -20 -51q-27 -31 -78 -31q-98 0 -98 100q0 76 69 127 q76 57 207 57t214 -51t83 -151v-389q0 -37 33 -37q8 0 16 6l14 14l23 -31v0zM434 365q-180 -45 -180 -181q0 -100 76 -100q47 0 104 63v218z" />
<glyph unicode="b" horiz-adv-x="825" d="M774 358q0 -158 -82 -260q-94 -119 -264 -118q-96 0 -186 83l-117 -81h-19v901q0 47 -20 65q-14 10 -61 21v35h288v-386q78 84 181 84q127 0 202 -98q78 -96 78 -246zM555 336q0 287 -137 287q-72 0 -105 -88v-392q0 -117 101 -116q141 0 141 309z" />
<glyph unicode="c" horiz-adv-x="659" d="M639 135q-113 -156 -285 -155q-139 0 -229 102q-88 94 -88 237q0 201 123 302q94 82 227 81q86 0 156 -40q76 -45 75 -121q0 -96 -102 -97q-55 0 -72 48q-10 31 -10 106q0 57 -61 57q-127 0 -127 -247q0 -154 59.5 -242t147.5 -88q82 0 159 84l27 -27v0z" />
<glyph unicode="d" horiz-adv-x="825" d="M793 29q-98 -10 -170 -21.5t-119 -25.5v96q-23 -27 -44.5 -43.5t-37.5 -26.5q-51 -29 -125 -28q-98 0 -176 90q-84 100 -84 252q0 182 92 286q80 94 195 94q88 0 176 -92v273q0 55 -27 69q-20 10 -88 17v35h320v-854q0 -84 88 -87v-34v0zM500 526q-37 92 -117 92 q-127 0 -127 -276q0 -281 119 -281q45 0 88 48q37 37 37 57v360z" />
<glyph unicode="e" horiz-adv-x="659" d="M633 164q-119 -184 -295 -184q-123 0 -207 86q-94 96 -94 276q0 164 88 264q86 96 217 96q268 0 283 -337h-373q8 -279 178 -279q90 0 166 100l37 -22v0zM442 418q0 61 -12 168q-18 70 -82 69q-104 0 -104 -237h198v0z" />
<glyph unicode="f" horiz-adv-x="493" d="M578 877q0 -90 -95 -91q-41 0 -65 29q-20 20 -21 51q0 12 5.5 25.5t11.5 26t11 21.5t5 13q0 27 -45 27q-74 0 -74 -113v-182h129v-66h-129v-464q0 -37 5.5 -59.5t18.5 -35t37.5 -17.5t61.5 -7v-35h-414v35q47 6 62 18q23 16 22 72v493h-84v66h84q0 156 35 225 q59 117 236 117q78 0 135 -37q68 -38 68 -112z" />
<glyph unicode="g" horiz-adv-x="741" d="M717 -82q0 -223 -381 -223q-295 0 -295 135q0 96 137 111v2q-63 23 -84 43q-33 27 -33 82q0 61 64 112q49 41 111 56v4q-180 63 -181 227q0 98 76 162q84 74 227 73q86 0 164 -32h193v-78h-119q59 -70 59 -148q0 -154 -155 -202q-39 -12 -189 -13q-25 0 -53.5 -22.5 t-28.5 -52.5q0 -37 33 -45q25 -8 115 -9h96q244 0 244 -182zM455 461q0 195 -99 194q-98 0 -98 -194q0 -190 98 -191q99 1 99 191zM600 -154q0 76 -119 76h-258q-51 -43 -51 -82q0 -98 182 -98q246 0 246 104z" />
<glyph unicode="h" horiz-adv-x="825" d="M444 0v35q70 8 70 86v358q0 123 -82 123q-39 0 -82 -37q-41 -35 -41 -49v-395q0 -76 72 -86v-35h-356v35q45 8 61 23.5t16 66.5v758q0 49 -16 65q-16 12 -61 21v35h284v-418q102 117 211 116q76 0 131 -43q70 -57 70 -165v-369q0 -90 72 -90v-35h-349z" />
<glyph unicode="i" horiz-adv-x="413" d="M319 909q0 -47 -33.5 -79.5t-80.5 -32.5q-51 0 -84 32.5t-33 79.5q0 49 34 83t83 34q47 0 80.5 -34t33.5 -83zM25 0v35q47 12 62 26.5t15 63.5v436q0 47 -16 63.5t-61 24.5v35h284v-563q0 -78 70 -86v-35h-354z" />
<glyph unicode="j" horiz-adv-x="493" d="M391 909q0 -47 -34.5 -79.5t-82.5 -32.5q-49 0 -81.5 32.5t-32.5 79.5q0 49 32.5 83t81.5 34q47 0 82 -34t35 -83zM385 2q0 -303 -272 -303q-72 0 -129 35q-68 39 -68 116q0 88 92 89q41 0 63.5 -27t22.5 -55q0 -10 -5 -22.5t-11 -25t-11.5 -22.5t-5.5 -16q0 -27 48 -27 q72 0 71 113v704q0 55 -28 74q-18 12 -66 14v35h299v-682v0z" />
<glyph unicode="k" horiz-adv-x="825" d="M459 0v35q61 0 61 28q0 16 -35 68l-141 199l-33 -35v-170q0 -51 12.5 -66.5t63.5 -23.5v-35h-354v35q72 0 71 90v758q0 86 -71 86v35h278v-639l189 188q33 33 32 55q0 25 -34 35q-14 2 -26.5 4t-27.5 4v33h318v-33q-27 -4 -44.5 -8t-27.5 -8q-29 -12 -57 -35 q-49 -41 -87 -77t-65 -66l289 -400q16 -23 37 -22v-35h-348z" />
<glyph unicode="l" horiz-adv-x="413" d="M25 0v35q76 0 75 90v758q0 86 -75 86v35h280v-879q0 -90 74 -90v-35h-354z" />
<glyph unicode="m" horiz-adv-x="1236" d="M856 0v35q72 4 72 86v358q0 123 -80 123q-41 0 -84 -37q-41 -35 -41 -49v-395q0 -78 70 -86v-35h-349v35q72 6 72 86v358q0 123 -82 123q-41 0 -86 -39q-37 -33 -37 -47v-395q0 -78 70 -86v-35h-356v35q23 4 37 10t22 10q20 20 20 70v436q0 51 -24 72q-18 10 -55 16v35 h282v-106h4q74 125 209 124q139 0 195 -129q98 129 221 129q76 0 131 -43q68 -57 68 -165v-373q0 -82 73 -86v-35h-352z" />
<glyph unicode="n" horiz-adv-x="825" d="M451 0v35q70 8 69 86v358q0 123 -80 123q-39 0 -82 -37q-43 -33 -43 -49v-395q0 -76 74 -86v-35h-358v35q49 10 59 20q20 18 21 70v436q0 49 -16.5 64.5t-63.5 23.5v35h284v-106h2q74 125 211 124q76 0 131 -43q68 -57 68 -165v-373q0 -82 74 -86v-35h-350z" />
<glyph unicode="o" horiz-adv-x="741" d="M707 340q0 -152 -93 -256q-92 -104 -241 -104q-150 0 -246 108q-90 102 -90 252t92 256q94 106 244 106q145 0 239 -104q95 -100 95 -258zM489 340q0 174 -24.5 244.5t-91.5 70.5q-76 0 -101 -94q-16 -70 -16 -221q0 -162 14 -217q25 -98 105 -98q72 0 96 88 q18 65 18 227z" />
<glyph unicode="p" horiz-adv-x="825" d="M778 358q0 -176 -86 -280q-80 -96 -198 -96q-86 0 -177 88v-209q0 -80 33 -111q23 -18 84 -22v-33h-405v37q49 8 65.5 23.5t16.5 62.5v743q0 47 -15.5 63.5t-64.5 24.5v35h284v-98h2q59 117 189 116q106 0 182 -81q90 -97 90 -263zM559 332q0 287 -117 286q-45 0 -88 -45 q-37 -37 -37 -59v-360q41 -92 115 -93q127 1 127 271z" />
<glyph unicode="q" horiz-adv-x="825" d="M399 -305v39q70 12 86 26q23 23 23 97v204q-76 -82 -176 -81q-119 0 -197 86q-84 96 -84 276q0 143 84 246q96 115 252 114q92 0 188 -84l117 82h23v-882q0 -51 20 -66q10 -10 62 -20v-37h-398zM508 537q0 119 -100 118q-141 0 -142 -301q0 -295 142 -295q80 0 100 86 v392z" />
<glyph unicode="r" horiz-adv-x="659" d="M645 586q0 -37 -20 -64q-29 -35 -76 -35q-45 0 -80 43q-33 45 -51 45q-25 0 -53 -30q-35 -41 -35 -111v-280q0 -68 19.5 -91.5t88.5 -27.5v-35h-395v35q23 4 36 10t21 10q23 23 23 70v436q0 80 -80 88v35h281v-117h2q98 135 194 135q68 0 101 -45q24 -30 24 -71z" />
<glyph unicode="s" horiz-adv-x="577" d="M537 207q0 -104 -64.5 -165.5t-169.5 -61.5q-49 0 -119 20q-74 23 -69 23q-18 0 -41 -41h-37v243h41q53 -197 211 -196q51 0 77.5 30.5t26.5 67.5q0 57 -92 102q-166 88 -168 90q-92 68 -92 164q0 98 65.5 158.5t169.5 60.5q39 0 95 -16q59 -16 63 -16q23 0 39 28h31 v-215h-37q-49 170 -184 170q-39 0 -67 -24.5t-28 -59.5q0 -59 91 -106q168 -86 167 -88q91 -66 91 -168z" />
<glyph unicode="t" horiz-adv-x="493" d="M494 147q-86 -166 -220 -165q-168 0 -168 155v481h-77v41q135 115 247 277h37v-252h140v-66h-140v-446q0 -84 58 -84q47 0 86 76l37 -17v0z" />
<glyph unicode="u" horiz-adv-x="825" d="M797 29q-72 -8 -116 -12.5t-65 -8.5q-23 -4 -49 -10t-57 -16v96q-113 -98 -211 -98q-203 0 -203 206v375q0 45 -13 62.5t-58 25.5v35h278v-504q0 -104 82 -104q57 0 123 65v420q0 55 -27 74q-18 12 -65 14v35h299v-534q0 -84 82 -87v-34v0z" />
<glyph unicode="v" horiz-adv-x="741" d="M721 649q-55 -6 -86 -82l-238 -587h-39l-178 438q-45 115 -86 190q-14 31 -63 41v35h370v-35q-78 -6 -77 -41q0 -10 14 -45l117 -301l106 270q16 43 17 68q0 47 -82 49v35h225v-35v0z" />
<glyph unicode="w" horiz-adv-x="1071" d="M1051 649q-29 -6 -39 -14q-20 -14 -37 -60l-230 -595h-34l-148 450h-8l-180 -450h-37l-219 555q-14 37 -23.5 57t-18.5 32.5t-18.5 17.5t-23.5 7v35h330v-35q-57 -8 -58 -45q0 -10 125 -342l100 254q-10 43 -30 96q-12 31 -66 37v35h348v-35q-72 -10 -71 -37 q0 -16 35 -139q23 -78 36 -128t17 -73h4q115 319 115 322q0 49 -70 55v35h201v-35v0z" />
<glyph unicode="x" horiz-adv-x="741" d="M360 0v35q68 4 68 33q0 18 -27 59q-10 14 -30.5 45t-55.5 82q-119 -156 -118 -180q0 -33 75 -39v-35h-252v35q49 6 84 41q18 16 63.5 72.5t117.5 150.5l-191 293q-33 51 -76 57v35h371v-35q-70 0 -70 -31q0 -16 43 -83q20 -29 36 -49.5t26 -34.5q111 141 111 161 q0 23 -14.5 28t-61.5 9v35h250v-35q-66 -8 -105 -57l-149 -189l219 -337q16 -23 45 -31v-35h-359z" />
<glyph unicode="y" horiz-adv-x="741" d="M713 649q-59 -10 -86 -82l-221 -590q-63 -170 -99 -215q-51 -68 -147 -67q-63 0 -105 41q-31 33 -30 76q0 96 96 96q84 0 84 -76q0 -6 -2 -15.5t-2 -11.5q0 -25 24 -24q57 0 99 121l26 80l-178 436q-45 117 -86 190q-16 31 -61 41v35h370v-35q-80 -8 -80 -41q0 -6 31 -86 l107 -274l100 284q16 49 16 68q0 47 -80 49v35h224v-35v0z" />
<glyph unicode="z" horiz-adv-x="659" d="M600 0h-569v37l348 600q-76 -2 -124 -7t-71 -16q-61 -27 -90 -141h-37l11 211h550v-39l-344 -598q127 -4 175 14q102 37 133 177h41z" />
<glyph unicode="{" horiz-adv-x="585" d="M504 -260q-162 0 -230 37q-82 45 -81 172v266q0 76 -33 114t-127 58q94 20 127 58t33 114v266q0 129 81 174q66 37 230 37v-18q-156 -27 -156 -184v-254q0 -84 -31 -125q-37 -47 -139 -66v-4q102 -18 139 -66q31 -39 31 -124v-254q0 -156 156 -183v-18v0z" />
<glyph unicode="|" horiz-adv-x="325" d="M98 -29v1055h131v-1055h-131z" />
<glyph unicode="}" horiz-adv-x="585" d="M553 389q-94 -20 -127 -58t-33 -114v-266q0 -129 -82 -174q-68 -37 -231 -37v18q88 16 123 59.5t35 125.5v254q0 86 30 125q37 47 140 65v4q-102 18 -140 66q-31 41 -30 125v254q0 154 -158 182v18q164 0 231 -37q82 -45 82 -172v-266q0 -76 33 -114t127 -58z" />
<glyph unicode="~" horiz-adv-x="772" d="M729 391q-92 -129 -186 -129q-61 0 -152 49q-96 53 -170 54q-76 0 -125 -109l-53 104q68 129 186 129q57 0 166 -51q111 -51 150 -51q61 0 131 107l53 -103v0z" />
<glyph unicode="&#xa1;" />
<glyph unicode="&#xa2;" />
<glyph unicode="&#xa3;" />
<glyph unicode="&#xa4;" />
<glyph unicode="&#xa5;" />
<glyph unicode="&#xa6;" />
<glyph unicode="&#xa7;" />
<glyph unicode="&#xa8;" />
<glyph unicode="&#xa9;" />
<glyph unicode="&#xaa;" />
<glyph unicode="&#xab;" horiz-adv-x="741" d="M702 80q0 -27 -18 -27q-8 0 -53 35l-305 246v6l301 244q39 33 53 32q18 0 18 -20q0 -45 -172 -258l105 -135q71 -96 71 -123zM412 80q0 -27 -19 -27q-8 0 -53 35l-305 246v6l301 244q39 33 53 32q18 0 19 -20q0 -45 -172 -258l104 -135q72 -96 72 -123z" />
<glyph unicode="&#xac;" />
<glyph unicode="&#xad;" horiz-adv-x="512" d="M61 307v123h390v-123h-390z" />
<glyph unicode="&#xae;" horiz-adv-x="1110" d="M1071 498q0 -221 -147 -375q-147 -152 -369 -152q-217 0 -369 152q-147 154 -147 375t147 374q152 154 369 154q219 0 367 -154q149 -149 149 -374zM965 498q0 186 -119 317q-117 133 -291 133q-172 0 -293 -133q-119 -131 -119 -317t119 -318q119 -131 293 -131 q172 0 291 131q119 132 119 318zM715 227q-27 0 -70 78q-41 72 -64.5 115t-31.5 55h-55v-156q0 -20 1 -33.5t8 -19.5t21.5 -9t38.5 -3v-27h-256v27q25 0 39 3t20.5 9t7.5 19.5t1 33.5v379q0 23 -1 35t-7.5 18.5t-20.5 9.5t-39 3v27h287q170 0 170 -146q0 -115 -119 -153 l86 -121q57 -80 105 -127v-17h-121zM639 639q0 119 -90 119h-55v-250h53q92 0 92 131z" />
<glyph unicode="&#xaf;" />
<glyph unicode="&#xb0;" />
<glyph unicode="&#xb1;" />
<glyph unicode="&#xb2;" />
<glyph unicode="&#xb3;" />
<glyph unicode="&#xb4;" />
<glyph unicode="&#xb5;" />
<glyph unicode="&#xb6;" />
<glyph unicode="&#xb7;" />
<glyph unicode="&#xb8;" />
<glyph unicode="&#xb9;" />
<glyph unicode="&#xba;" />
<glyph unicode="&#xbb;" horiz-adv-x="741" d="M408 86q-39 -33 -54 -33q-20 0 -20 21q0 47 172 258q-2 2 -26.5 35.5t-76.5 99.5q-72 96 -71 123q0 27 16 26q8 0 53 -34l308 -246v-6zM117 86q-39 -33 -56 -33q-18 0 -18 21q0 47 172 258q-2 2 -26.5 35.5t-75.5 99.5q-72 96 -72 123t16 26q8 0 54 -34l307 -246v-6z" />
<glyph unicode="&#xbc;" />
<glyph unicode="&#xbd;" />
<glyph unicode="&#xbe;" />
<glyph unicode="&#xbf;" />
<glyph unicode="&#xc0;" />
<glyph unicode="&#xc1;" />
<glyph unicode="&#xc2;" />
<glyph unicode="&#xc3;" />
<glyph unicode="&#xc4;" />
<glyph unicode="&#xc5;" />
<glyph unicode="&#xc6;" />
<glyph unicode="&#xc7;" />
<glyph unicode="&#xc8;" />
<glyph unicode="&#xc9;" />
<glyph unicode="&#xca;" />
<glyph unicode="&#xcb;" />
<glyph unicode="&#xcc;" />
<glyph unicode="&#xcd;" />
<glyph unicode="&#xce;" />
<glyph unicode="&#xcf;" />
<glyph unicode="&#xd0;" />
<glyph unicode="&#xd1;" />
<glyph unicode="&#xd2;" />
<glyph unicode="&#xd3;" />
<glyph unicode="&#xd4;" />
<glyph unicode="&#xd5;" />
<glyph unicode="&#xd6;" />
<glyph unicode="&#xd7;" horiz-adv-x="778" d="M475 377l248 -246l-88 -88l-246 248l-254 -254l-86 86l254 254l-248 246l88 88l246 -248l254 254l86 -86z" />
<glyph unicode="&#xd8;" />
<glyph unicode="&#xd9;" />
<glyph unicode="&#xda;" />
<glyph unicode="&#xdb;" />
<glyph unicode="&#xdc;" />
<glyph unicode="&#xdd;" />
<glyph unicode="&#xde;" />
<glyph unicode="&#xdf;" />
<glyph unicode="&#xe0;" />
<glyph unicode="&#xe1;" />
<glyph unicode="&#xe2;" />
<glyph unicode="&#xe3;" />
<glyph unicode="&#xe4;" />
<glyph unicode="&#xe5;" />
<glyph unicode="&#xe6;" />
<glyph unicode="&#xe7;" />
<glyph unicode="&#xe8;" />
<glyph unicode="&#xe9;" />
<glyph unicode="&#xea;" />
<glyph unicode="&#xeb;" />
<glyph unicode="&#xec;" />
<glyph unicode="&#xed;" />
<glyph unicode="&#xee;" />
<glyph unicode="&#xef;" />
<glyph unicode="&#xf0;" />
<glyph unicode="&#xf1;" />
<glyph unicode="&#xf2;" />
<glyph unicode="&#xf3;" />
<glyph unicode="&#xf4;" />
<glyph unicode="&#xf5;" />
<glyph unicode="&#xf6;" />
<glyph unicode="&#xf7;" horiz-adv-x="778" d="M471 623q0 -33 -24.5 -57.5t-57.5 -24.5t-57.5 24.5t-24.5 57.5t24.5 57.5t57.5 24.5t57.5 -24.5t24.5 -57.5zM31 315v123h717v-123h-717zM471 131q0 -33 -24.5 -57.5t-57.5 -24.5t-57.5 24.5t-24.5 57.5t24.5 57.5t57.5 24.5t57.5 -24.5t24.5 -57.5z" />
<glyph unicode="&#xf8;" />
<glyph unicode="&#xf9;" />
<glyph unicode="&#xfa;" />
<glyph unicode="&#xfb;" />
<glyph unicode="&#xfc;" />
<glyph unicode="&#xfd;" />
<glyph unicode="&#xfe;" />
<glyph unicode="&#xff;" />
<glyph unicode="&#x131;" />
<glyph unicode="&#x141;" />
<glyph unicode="&#x142;" />
<glyph unicode="&#x152;" />
<glyph unicode="&#x153;" />
<glyph unicode="&#x160;" />
<glyph unicode="&#x161;" />
<glyph unicode="&#x178;" />
<glyph unicode="&#x17d;" />
<glyph unicode="&#x17e;" />
<glyph unicode="&#x192;" />
<glyph unicode="&#x2c6;" />
<glyph unicode="&#x2c7;" />
<glyph unicode="&#x2d8;" />
<glyph unicode="&#x2d9;" />
<glyph unicode="&#x2da;" horiz-adv-x="634" d="M494 895q0 -68 -49.5 -117t-116.5 -49q-68 0 -115 49t-47 117t47 115t115 47t117 -47t49 -115zM389 895q0 25 -18.5 43t-42.5 18q-25 0 -43.5 -18t-18.5 -43t18.5 -43t43.5 -18t43 18t18 43z" />
<glyph unicode="&#x2db;" />
<glyph unicode="&#x2dc;" />
<glyph unicode="&#x2dd;" />
<glyph unicode="&#xe00;" />
<glyph unicode="&#xe01;" horiz-adv-x="757" d="M502 0v625q0 49 -38 76.5t-91 27.5q-109 0 -137 -86q53 -27 86 -70q-66 -29 -66 -102v-471h-184v467q0 70 67 106q-33 23 -104 48q29 98 122 154t216 56q68 0 125 -15t99 -44t65.5 -69.5t23.5 -94.5v-608h-184z" />
<glyph unicode="&#xe02;" horiz-adv-x="763" d="M692 190q0 -94 -86 -153q-76 -49 -190 -49q-113 0 -191 49q-86 53 -86 149v324q0 39 66 86t61 96q-4 37 -43 45q-33 8 -55 -4q14 -20 14 -47q0 -35 -24.5 -58.5t-61.5 -23.5t-61.5 23.5t-24.5 58.5q0 57 58.5 101t162.5 44q80 0 141.5 -37.5t61.5 -99.5q0 -45 -55 -104 q-55 -55 -55 -98v-330q0 -72 92 -72t92 72v657h184v-629v0z" />
<glyph unicode="&#xe03;" horiz-adv-x="790" d="M719 190q0 -94 -86 -153q-76 -49 -191 -49q-113 0 -190 47q-86 55 -86 151v351q0 33 67 75q70 45 70 80q0 6 -4 23l-70 -58l-71 66q12 -37 12 -51q0 -35 -24.5 -58.5t-61.5 -23.5t-61.5 23.5t-24.5 58.5q0 41 35 82q55 61 141 75l53 -47l54 43q70 0 129 -39 q61 -39 61 -94q0 -31 -61 -80q-59 -49 -60 -84v-366q0 -74 92 -74t93 74v657h184v-629v0z" />
<glyph unicode="&#xe04;" horiz-adv-x="778" d="M522 0v625q0 47 -38 75.5t-95 28.5t-95 -28.5t-38 -75.5v-244q59 74 133 74q47 0 73.5 -30t26.5 -65q0 -39 -27.5 -64.5t-66.5 -25.5q-41 0 -65 25q-74 -70 -74 -164v-131h-184v614q0 106 100 164q90 53 217 53q129 0 217 -55q100 -61 101 -162v-614h-185z" />
<glyph unicode="&#xe05;" horiz-adv-x="778" d="M522 0v653q0 45 -24 60l-109 -84l-108 84q-25 -14 -25 -60v-272q66 74 133 74q47 0 73.5 -30t26.5 -65q0 -39 -27.5 -65.5t-66.5 -26.5t-65 27q-74 -74 -74 -164v-131h-184v614q0 92 66.5 147.5t170.5 65.5l80 -59l80 63q238 -31 238 -217v-614h-185z" />
<glyph unicode="&#xe06;" horiz-adv-x="843" d="M590 0q-10 84 -68 164q-55 74 -119 98v-139q0 -61 -37.5 -97t-101.5 -36q-92 0 -154.5 60.5t-62.5 158.5q0 72 49 128t123 73v127q0 33 53 75q55 43 56 76q0 12 -6 27l-70 -58l-72 66q12 -37 13 -51q0 -35 -25 -58.5t-62 -23.5t-61.5 23.5t-24.5 58.5q0 41 35 82 q55 61 142 75l53 -47l53 43q70 0 129 -39q61 -39 62 -94q0 -35 -45 -82q-45 -45 -46 -82v-125q115 -27 185 -110v526h184v-819h-182zM219 289q-20 -4 -40.5 -28.5t-20.5 -53.5q0 -66 61 -82v164z" />
<glyph unicode="&#xe07;" horiz-adv-x="657" d="M403 0q-45 289 -264 311q-74 6 -139 -18q0 166 141 168q37 0 75 -12.5t73 -34t64.5 -50t47.5 -63.5v381q0 61 -57 53q10 -16 10 -39q0 -35 -24.5 -58.5t-61.5 -23.5t-61.5 24t-24.5 58q0 49 54 90q63 45 161 45q86 0 137.5 -38.5t51.5 -102.5v-690h-183z" />
<glyph unicode="&#xe08;" horiz-adv-x="716" d="M461 0q0 227 -129 362q-29 -23 -66 -22q-41 0 -69.5 27.5t-28.5 66.5q0 41 34 68.5t87 25.5q102 -6 172 -149v250q0 100 -117 102q-49 2 -83 -20.5t-34 -48.5q0 -18 23 -46q-53 -47 -117 -47q-41 0 -73.5 22.5t-32.5 61.5q0 68 98 123q102 55 215 55q121 0 209 -55 q96 -59 96 -162v-614h-184z" />
<glyph unicode="&#xe09;" horiz-adv-x="874" d="M889 205q4 -92 -42 -153.5t-132 -63.5q-80 -2 -129 41t-49 116v127q-145 -74 -166 -272h-183v408q0 37 -36 32q10 -16 10 -39q0 -35 -24.5 -58.5t-61.5 -23.5t-61.5 24t-24.5 58q0 53 56 94.5t149 41.5q74 0 126 -39t52 -97v-104q63 72 164 106v215q0 111 -148 113 q-59 2 -100 -19.5t-47 -49.5q-10 -35 22 -46q-53 -47 -117 -47q-41 0 -73 23q-35 25 -33 63q6 70 109 123q102 53 237 53q137 0 231 -55q102 -61 103 -162v-202q70 -16 118 -71.5t50 -135.5zM784 199q-4 66 -63 96v-158q0 -29 18 -28q49 0 45 90z" />
<glyph unicode="&#xe0a;" horiz-adv-x="763" d="M715 858q8 -14 8 -33q0 -37 -33 -71.5t-78 -48.5q80 -33 80 -127v-388q0 -94 -86 -153q-76 -49 -190 -49q-115 0 -193 49q-84 53 -84 149v324q0 39 66 86t61 96q-4 37 -43 45q-33 8 -55 -4q14 -20 14 -47q0 -35 -24.5 -58.5t-61.5 -23.5t-61.5 23.5t-24.5 58.5 q0 57 58.5 101t162.5 44q80 0 141.5 -37.5t61.5 -99.5q0 -45 -55 -104q-55 -55 -55 -98v-330q0 -72 92 -72t92 72v418q0 92 -74 122q80 29 82 89q4 47 -37 63q57 47 133 47q83 0 103 -43z" />
<glyph unicode="&#xe0b;" horiz-adv-x="800" d="M752 858q8 -14 8 -33q0 -37 -33 -71.5t-78 -48.5q80 -33 80 -127v-388q0 -94 -86 -153q-76 -49 -190 -49q-115 0 -193 49q-84 53 -84 149v351q0 33 64 75q63 45 63 80q0 6 -4 23l-70 -58l-71 66q12 -37 12 -51q0 -35 -24.5 -58.5t-61.5 -23.5t-61.5 23.5t-24.5 58.5 q0 41 35 82q55 61 141 75l53 -47l54 43q70 0 129 -39q61 -39 61 -94q0 -31 -55 -80t-56 -84v-366q0 -72 93 -72q92 0 92 72v418q0 92 -74 122q80 29 82 89q4 47 -37 63q57 47 133 47q83 0 103 -43z" />
<glyph unicode="&#xe0c;" horiz-adv-x="1146" d="M901 0q-51 51 -127 92q-29 -102 -145 -102q-61 0 -104.5 39t-43.5 94q0 57 41 94v399q0 49 -39 81t-102 32q-111 0 -145 -86q53 -27 86 -70q-66 -29 -66 -102v-326q0 -70 37 -69q-10 16 -10 39q0 35 24.5 58.5t61.5 23.5t61.5 -23.5t24.5 -58.5q0 -59 -58.5 -94 t-144.5 -31t-133 48t-47 118v311q0 70 67 106q-33 23 -104 48q29 98 124 154t220 56q147 0 237.5 -58t90.5 -159v-360q100 -27 184 -88v653h184v-819h-174zM680 123q0 47 -51 47t-51 -47t51 -47t51 47z" />
<glyph unicode="&#xe0d;" horiz-adv-x="1126" d="M1055 197q0 -98 -84 -158q-76 -51 -193 -51t-192 51q-84 55 -84 158v428q0 49 -38 76.5t-91 27.5q-109 0 -137 -86q53 -27 86 -70q-66 -29 -66 -102v-326q0 -70 37 -69q-10 16 -10 39q0 35 24.5 58.5t61.5 23.5t61.5 -23.5t24.5 -58.5q0 -59 -58.5 -94t-144.5 -31 t-133 48t-47 118v311q0 70 67 106q-33 23 -104 48q29 98 122 154t216 56q68 0 125 -15t99 -44t65.5 -69.5t23.5 -94.5v-430q0 -88 92 -88t92 88v641h185v-622v0zM1036 -135q2 -37 -16.5 -71t-53 -60.5t-80.5 -44t-100 -21.5q-96 -8 -180 33q-86 43 -90 115q-4 55 31 92 t86 39q37 2 63.5 -21.5t28.5 -58.5q4 -53 -43 -80q27 -20 76 -18q90 6 102 75q6 35 -22 52q43 51 120 45q76 -6 78 -76z" />
<glyph unicode="&#xe0e;" horiz-adv-x="851" d="M606 -369q-23 27 -51.5 50.5t-60.5 46.5q-55 -82 -177 -95q-39 -4 -75.5 3.5t-65.5 24.5t-46 43t-17 58q0 59 59 102.5t145 43.5q39 0 70 -8q0 41 -47 57q35 41 98 41q106 0 107 -111q0 -27 -6 -47q37 -23 57 -39v824q0 104 -119 104q-98 0 -127 -86q53 -27 86 -70 q-66 -29 -65 -102l4 -326q2 -150 -180 -155q-86 -4 -144.5 30.5t-58.5 94.5q0 35 24.5 58.5t61.5 23.5t61.5 -23.5t24.5 -58.5q0 -23 -10 -39q37 0 36 76l-4 315q0 70 68 106q-33 23 -104 48q29 98 116.5 154t210.5 56q135 0 219 -58t84 -165v-977h-174zM371 -205 q-31 25 -88 12q-55 -12 -47 -51q4 -16 30 -22q29 -4 47 4q48 14 58 57z" />
<glyph unicode="&#xe0f;" horiz-adv-x="851" d="M596 -369l-59 82l-64 -75q-10 10 -27.5 28.5t-42.5 44.5q-61 -68 -153 -67q-59 0 -100 32q-49 37 -50 101q0 55 47.5 92t112.5 37q29 0 59 -10q2 33 -32 51q35 31 92 30q33 0 53 -12q37 -23 37 -74q0 -35 -12 -55l22 -22l60 67l57 -67v811q0 104 -119 104q-98 0 -127 -86 q53 -27 86 -70q-66 -29 -65 -102l4 -326q2 -150 -180 -155q-86 -4 -144.5 30.5t-58.5 94.5q0 35 24.5 58.5t61.5 23.5t61.5 -23.5t24.5 -58.5q0 -23 -10 -39q37 0 36 76l-4 315q0 70 68 106q-33 23 -104 48q29 98 116.5 154t210.5 56q135 0 219 -58t84 -165v-977h-184z M303 -211q-20 33 -67 23q-49 -8 -46 -43q4 -41 56 -31q43 8 57 51z" />
<glyph unicode="&#xe10;" horiz-adv-x="716" d="M461 0q0 154 -109 225q-27 -33 -73 -32q-39 0 -67 25.5t-28 62.5q0 41 34 69.5t87 28.5q92 0 156 -82v102q0 61 -71 97t-183 36q-86 0 -187 -22q16 141 113 231q102 92 219 90q27 -2 54.5 -7t60.5 -15q59 -16 90 -21q47 -2 70 64q33 -45 32 -94q0 -49 -33.5 -83 t-90.5 -34q-43 0 -123 33q-74 31 -121 24q-80 -10 -103 -77q131 12 236 -3q221 -27 221 -206v-412h-184zM457 -360l-58 51l-59 -51q-16 16 -70 57q-59 -57 -170 -53q-63 4 -108 32q-53 37 -53 93q0 59 54 97t128 38q35 0 61 -8q0 27 -26 45q39 16 77 16q55 0 86 -25 q53 -41 25 -116l14 -11l58 45l76 -67v24q-39 27 -39 70q0 37 27.5 63.5t66.5 26.5q98 0 98 -98v-229h-188zM166 -215q-16 27 -66 22q-51 -2 -47 -38q2 -14 19.5 -23.5t33.5 -5.5q50 10 60 45z" />
<glyph unicode="&#xe11;" horiz-adv-x="856" d="M600 0v602q0 37 -25 19q-51 -37 -116 -209q-39 -102 -61.5 -205t-26.5 -207h-185v537q0 33 54 75q55 43 55 76q0 12 -6 27l-70 -58l-72 66q12 -37 13 -51q0 -35 -24.5 -58.5t-61.5 -23.5t-61.5 23.5t-24.5 58.5q0 41 35 82q55 61 141 75l53 -47l53 43q31 0 61.5 -10 t55.5 -28.5t39 -43t14 -51.5t-41 -80q-39 -47 -39 -84v-16q0 -8 -3 -34.5t-7 -74.5h4q10 49 43 142q133 281 236 282q152 6 151 -157v-670h-184z" />
<glyph unicode="&#xe12;" horiz-adv-x="1126" d="M881 0q-20 27 -47 48.5t-60 41.5q-27 -100 -145 -100q-63 0 -106.5 39t-43.5 94t43 92v438q0 43 -35 60l-98 -70l-98 70q-35 -16 -35 -60v-391q16 20 33.5 47t40.5 62q-37 23 -37 69q0 37 28.5 64.5t67.5 27.5q45 0 72.5 -29.5t27.5 -70.5q0 -51 -81 -166 q-57 -84 -96.5 -149.5t-61.5 -116.5h-178v614q0 88 78 154q72 59 169 59l70 -47l70 47q98 0 172 -61q76 -61 76 -152v-362q94 -33 163 -82v647h185v-817h-174zM680 123q0 47 -51 47t-51 -47t51 -47t51 47z" />
<glyph unicode="&#xe13;" horiz-adv-x="1187" d="M1202 211q0 -88 -47 -154q-51 -70 -141 -69q-72 0 -118 45t-46 108v131q-139 -74 -166 -272h-182v625q0 49 -38 76.5t-91 27.5q-109 0 -137 -86q53 -27 86 -70q-66 -29 -66 -102v-326q0 -70 37 -69q-10 16 -10 39q0 35 24.5 58.5t61.5 23.5t61.5 -23.5t24.5 -58.5 q0 -59 -58.5 -94t-144.5 -31t-133 48t-47 118v311q0 70 67 106q-33 23 -104 48q29 98 122 154t216 56q68 0 125 -15t99 -44t65.5 -69.5t23.5 -94.5v-311q70 78 164 106v416h184v-407q168 -39 168 -201zM1098 207q-4 66 -64 96v-158q0 -29 19 -28q49 0 45 90z" />
<glyph unicode="&#xe14;" horiz-adv-x="778" d="M522 0v625q0 47 -38 75.5t-95 28.5t-95 -28.5t-38 -75.5v-363q16 20 33.5 47t40.5 62q-37 23 -37 69q0 37 28.5 64.5t67.5 27.5q45 0 72.5 -29.5t27.5 -70.5q0 -51 -81 -166q-57 -84 -96.5 -149.5t-61.5 -116.5h-178v614q0 106 100 164q90 53 217 53q129 0 217 -55 q100 -61 101 -162v-614h-185z" />
<glyph unicode="&#xe15;" horiz-adv-x="778" d="M522 0v653q0 43 -35 60l-98 -70l-98 70q-35 -16 -35 -60v-391q16 20 33.5 47t40.5 62q-37 23 -37 69q0 37 28.5 64.5t67.5 27.5q45 0 72.5 -29.5t27.5 -70.5q0 -51 -81 -166q-57 -84 -96.5 -149.5t-61.5 -116.5h-178v614q0 88 78 154q72 59 169 59l70 -47l70 47 q98 0 172 -61q76 -61 76 -152v-614h-185z" />
<glyph unicode="&#xe16;" horiz-adv-x="757" d="M502 0v625q0 49 -38 76.5t-91 27.5q-109 0 -137 -86q53 -27 86 -70q-66 -29 -66 -102v-326q0 -70 37 -69q-10 16 -10 39q0 35 24.5 58.5t61.5 23.5t61.5 -23.5t24.5 -58.5q0 -59 -58.5 -94t-144.5 -31t-133 48t-47 118v311q0 70 67 106q-33 23 -104 48q29 98 122 154 t216 56q68 0 125 -15t99 -44t65.5 -69.5t23.5 -94.5v-608h-184z" />
<glyph unicode="&#xe17;" horiz-adv-x="878" d="M623 0v623q0 37 -25 18q-49 -37 -117 -219q-39 -106 -61.5 -212t-26.5 -210h-184v702q0 37 -37 33q10 -16 10 -39q0 -35 -24.5 -58.5t-61.5 -23.5t-61.5 24t-24.5 58q0 55 56.5 95t148.5 40q76 0 127 -37.5t51 -97.5v-135q0 -37 -20 -158h4q10 49 43 142q133 281 235 282 q152 6 152 -157v-670h-184z" />
<glyph unicode="&#xe18;" horiz-adv-x="716" d="M645 190q0 -98 -88 -153q-76 -49 -199 -49q-121 0 -198 49q-88 55 -88 153v265h184v-285q0 -84 102 -84t103 84v244q0 104 -215 104q-113 0 -223 -33q4 152 104 250q102 98 225 96q27 -2 55.5 -7t63.5 -15t57.5 -14t36.5 -7q23 -2 42.5 17.5t19.5 46.5q33 -41 32 -96 q0 -51 -33.5 -86t-90.5 -35q-43 0 -123 27q-82 29 -121 28q-102 0 -123 -100q135 23 244 10q100 -10 166.5 -59t66.5 -129v-222v0z" />
<glyph unicode="&#xe19;" horiz-adv-x="915" d="M930 205q4 -92 -42 -153.5t-132 -63.5q-80 -2 -129 41t-49 116v127q-66 -35 -118 -110.5t-69 -161.5h-182v702q0 37 -37 33q10 -16 10 -39q0 -35 -24.5 -58.5t-61.5 -23.5t-61.5 24t-24.5 58q0 55 56.5 95t148.5 40q76 0 127 -37.5t51 -97.5v-401q61 68 185 108v416h184 v-407q70 -16 118 -71.5t50 -135.5zM825 199q-4 66 -63 96v-158q0 -29 18 -28q49 0 45 90z" />
<glyph unicode="&#xe1a;" horiz-adv-x="894" d="M823 205q0 -51 -23.5 -92t-65.5 -69t-97 -42t-121 -14q-131 0 -215 53q-92 59 -92 164l4 497q0 37 -37 33q10 -16 10 -39q0 -35 -24.5 -58.5t-61.5 -23.5t-61.5 24t-24.5 58q0 55 56.5 95t148.5 40q76 0 127 -37.5t51 -97.5l-4 -501q0 -104 123 -105q123 0 123 105v624 h184v-614v0z" />
<glyph unicode="&#xe1b;" horiz-adv-x="894" d="M823 205q0 -51 -23.5 -92t-65.5 -69t-97 -42t-121 -14q-131 0 -215 53q-92 59 -92 164l4 497q0 37 -37 33q10 -16 10 -39q0 -35 -24.5 -58.5t-61.5 -23.5t-61.5 24t-24.5 58q0 55 56.5 95t148.5 40q76 0 127 -37.5t51 -97.5l-4 -501q0 -104 123 -105q123 0 123 105v890 h184v-880v0z" />
<glyph unicode="&#xe1c;" horiz-adv-x="778" d="M532 0l-143 172l-143 -172h-174v666q0 72 52 117.5t134 47.5q86 2 141.5 -31.5t55.5 -92.5q0 -35 -24.5 -58.5t-61.5 -23.5t-61.5 23.5t-24.5 58.5q0 23 10 38q-37 -14 -37 -69v-457l133 162l133 -162v600h185v-819h-175z" />
<glyph unicode="&#xe1d;" horiz-adv-x="778" d="M532 0l-143 172l-143 -172h-174v666q0 72 52 117.5t134 47.5q86 2 141.5 -31.5t55.5 -92.5q0 -35 -24.5 -58.5t-61.5 -23.5t-61.5 23.5t-24.5 58.5q0 23 10 38q-37 -14 -37 -69v-457l133 162l133 -162v866h185v-1085h-175z" />
<glyph unicode="&#xe1e;" horiz-adv-x="956" d="M705 0l-160 489l-156 -489h-180v702q0 37 -37 33q10 -16 10 -39q0 -35 -24.5 -58.5t-61.5 -23.5t-61.5 24t-24.5 58q0 55 56.5 95t148.5 40q76 0 127 -37.5t51 -97.5v-157q0 -23 -5 -87.5t-15 -170.5h4l49 176l109 362h20l113 -362q6 -20 18 -64.5t31 -111.5h4 q-10 106 -15.5 170.5t-5.5 87.5v280h185v-819h-180z" />
<glyph unicode="&#xe1f;" horiz-adv-x="956" d="M705 0l-160 489l-156 -489h-180v702q0 37 -37 33q10 -16 10 -39q0 -35 -24.5 -58.5t-61.5 -23.5t-61.5 24t-24.5 58q0 55 56.5 95t148.5 40q76 0 127 -37.5t51 -97.5v-157q0 -23 -5 -87.5t-15 -170.5h4l49 176l109 362h20l113 -362q6 -20 18 -64.5t31 -111.5h4 q-10 106 -15.5 170.5t-5.5 87.5v546h185v-1085h-180z" />
<glyph unicode="&#xe20;" horiz-adv-x="851" d="M596 0v625q0 104 -119 104q-98 0 -127 -86q53 -27 86 -70q-66 -29 -65 -102l4 -326q2 -150 -180 -155q-86 -4 -144.5 30.5t-58.5 94.5q0 35 24.5 58.5t61.5 23.5t61.5 -23.5t24.5 -58.5q0 -23 -10 -39q37 0 36 76l-4 315q0 70 68 106q-33 23 -104 48q29 98 116.5 154 t210.5 56q135 0 219 -58t84 -165v-608h-184z" />
<glyph unicode="&#xe21;" horiz-adv-x="831" d="M578 0q-10 84 -68 164q-55 74 -119 98v-139q0 -61 -38 -97t-101 -36q-92 0 -154.5 60.5t-62.5 158.5q0 72 49 128t123 73v292q0 37 -37 33q10 -16 10 -39q0 -35 -24.5 -58.5t-61.5 -23.5t-61.5 24t-24.5 58q0 55 56.5 95t148.5 40q76 0 127 -37.5t51 -97.5v-293 q115 -27 184 -110v526h185v-819h-182zM207 289q-20 -4 -41 -28.5t-21 -53.5q0 -66 62 -82v164z" />
<glyph unicode="&#xe22;" horiz-adv-x="757" d="M686 205q0 -51 -23.5 -92t-65.5 -69t-97.5 -42t-120.5 -14q-131 0 -215 53q-92 59 -92 164v112q0 96 100 123q-100 37 -100 117v109q0 72 52 117.5t134 47.5q86 2 141.5 -31.5t55.5 -92.5q0 -35 -24.5 -58.5t-61.5 -23.5t-61.5 23.5t-24.5 58.5q0 23 10 38 q-37 -14 -37 -69v-105q0 -74 78 -73q29 0 53 8q0 -41 -65 -88q-66 -47 -66 -86v-137q0 -104 123 -105q123 0 123 105v624h184v-614v0z" />
<glyph unicode="&#xe23;" horiz-adv-x="649" d="M604 852q10 -92 -25.5 -151.5t-111.5 -57.5q-29 4 -84 27q-55 25 -80 24q-84 4 -117 -71q160 -4 267 -50q125 -55 125 -153v-275q0 -70 -58.5 -113.5t-159.5 -43.5q-94 0 -153.5 35.5t-61.5 91.5q-2 37 24 61.5t62 24.5q37 0 61.5 -22.5t24.5 -57.5q0 -23 -10 -39 q14 -8 47 -2q39 8 39 51v277q0 63 -92 96q-80 33 -203 33q-20 0 -38.5 -1t-39.5 -4q25 129 113 213q90 86 209 86q35 0 86 -18q51 -14 76 -18q61 -2 100 57z" />
<glyph unicode="&#xe24;" horiz-adv-x="757" d="M502 -307v932q0 49 -38 76.5t-91 27.5q-109 0 -137 -86q53 -27 86 -70q-66 -29 -66 -102v-326q0 -70 37 -69q-10 16 -10 39q0 35 24.5 58.5t61.5 23.5t61.5 -23.5t24.5 -58.5q0 -59 -58.5 -94t-144.5 -31t-133 48t-47 118v311q0 70 67 106q-33 23 -104 48q29 98 122 154 t216 56q68 0 125 -15t99 -44t65.5 -69.5t23.5 -94.5v-915h-184z" />
<glyph unicode="&#xe25;" horiz-adv-x="757" d="M502 0v379q0 31 -40 52.5t-97 17.5q-109 -6 -109 -84v-220q0 -70 37 -69q-10 16 -10 39q0 35 24.5 58.5t61.5 23.5t61.5 -23.5t24.5 -58.5q0 -59 -58.5 -94t-144.5 -31t-133 48t-47 118v192q0 86 73 150q76 66 183 71q115 6 174 -32v92q0 98 -121 102q-53 2 -87 -19.5 t-34 -49.5q0 -33 23 -46q-53 -47 -117 -47q-41 0 -74 22.5t-33 61.5q0 68 99 123q98 55 221 55q125 0 213 -53q94 -61 94 -164v-614h-184z" />
<glyph unicode="&#xe26;" horiz-adv-x="851" d="M596 -307v932q0 104 -119 104q-98 0 -127 -86q53 -27 86 -70q-66 -29 -65 -102l4 -326q2 -150 -180 -155q-86 -4 -144.5 30.5t-58.5 94.5q0 35 24.5 58.5t61.5 23.5t61.5 -23.5t24.5 -58.5q0 -23 -10 -39q37 0 36 76l-4 315q0 70 68 106q-33 23 -104 48q29 98 116.5 154 t210.5 56q135 0 219 -58t84 -165v-915h-184z" />
<glyph unicode="&#xe27;" horiz-adv-x="698" d="M627 170q0 -82 -69 -131t-173 -49q-92 0 -154.5 36.5t-68.5 96.5q-4 37 21.5 65.5t64.5 28.5q37 0 61.5 -23.5t24.5 -58.5q0 -27 -17 -49q27 -14 58 -8q68 12 67 80v471q0 100 -110 102q-49 2 -80 -19.5t-31 -49.5q0 -35 23 -46q-53 -47 -117 -47q-41 0 -74 22.5 t-33 61.5q0 66 89 121q88 57 221 57q123 0 205 -55q92 -61 92 -162v-444v0z" />
<glyph unicode="&#xe28;" horiz-adv-x="778" d="M756 844q-2 -74 -113 -94q63 -51 64 -136v-614h-185v625q0 47 -38 75.5t-95 28.5t-95 -28.5t-38 -75.5v-244q59 74 133 74q47 0 73.5 -30t26.5 -65q0 -39 -27.5 -64.5t-66.5 -25.5q-41 0 -65 25q-74 -70 -74 -164v-131h-184v614q0 106 100 164q90 53 217 53q33 0 64.5 -4 t44.5 -4q51 0 59 37q8 31 -25 64q49 18 95 18q57 0 94 -26.5t35 -71.5z" />
<glyph unicode="&#xe29;" horiz-adv-x="942" d="M1001 485q-8 -125 -200 -174v-106q0 -51 -23.5 -92t-65.5 -69t-97.5 -42t-120.5 -14q-127 0 -215 53q-92 59 -93 164l4 497q0 37 -36 33q10 -16 10 -39q0 -35 -24.5 -58.5t-61.5 -23.5t-61.5 24t-24.5 58q0 55 56 95t149 40q76 0 127 -37.5t51 -97.5l-4 -501 q0 -104 123 -105q123 0 122 105v100q-72 0 -117.5 32.5t-47.5 82.5q-2 35 20.5 60.5t54.5 27.5q35 2 60.5 -17.5t29.5 -48.5v387h185v-397q33 20 39 63q4 41 -33 68q47 37 113 27q39 -6 61 -34t20 -61z" />
<glyph unicode="&#xe2a;" horiz-adv-x="757" d="M739 844q-2 -74 -112 -94q59 -55 59 -136v-614h-184v379q0 31 -40 52.5t-97 17.5q-109 -6 -109 -84v-220q0 -70 37 -69q-10 16 -10 39q0 35 24.5 58.5t61.5 23.5t61.5 -23.5t24.5 -58.5q0 -59 -58.5 -94t-144.5 -31t-133 48t-47 118v192q0 86 73 150q76 66 183 71 q115 6 174 -32v92q0 98 -121 102q-53 2 -87 -19.5t-34 -49.5q0 -33 23 -46q-53 -47 -117 -47q-41 0 -74 22.5t-33 61.5q0 68 99 123q98 55 221 55q23 0 56.5 -4t45.5 -4q51 0 60 37q8 31 -25 64q49 18 94 18q57 0 94 -26.5t35 -71.5z" />
<glyph unicode="&#xe2b;" horiz-adv-x="899" d="M840 686q0 -59 -45 -98q33 -35 32 -94v-494h-184v524q-68 -45 -139 -149q-111 -168 -111 -375h-184v702q0 37 -37 33q10 -16 10 -39q0 -35 -24.5 -58.5t-61.5 -23.5t-61.5 24t-24.5 58q0 55 56.5 95t148.5 40q76 0 127 -37.5t51 -97.5v-153q0 -45 -33 -183h5 q8 27 24.5 61t38.5 79q37 49 113 102q-33 35 -33 84q0 63 47 104t119 41t119 -41t47 -104zM719 692q0 43 -47 43t-47 -43t47 -43t47 43z" />
<glyph unicode="&#xe2c;" horiz-adv-x="956" d="M946 1098q4 -88 -90 -140q29 -45 29 -145v-813h-180l-160 489l-156 -489h-180v702q0 37 -37 33q10 -16 10 -39q0 -35 -24.5 -58.5t-61.5 -23.5t-61.5 24t-24.5 58q0 55 56.5 95t148.5 40q76 0 127 -37.5t51 -97.5v-157q0 -23 -5 -87.5t-15 -170.5h4l49 176l109 362h20 l113 -362q6 -20 18 -64.5t31 -111.5h4q-10 106 -15.5 170.5t-5.5 87.5v274v25q-2 10 -2 18q-37 -10 -73 -10q-80 -2 -136.5 38t-56.5 103q0 68 62 107q55 37 135 36q86 0 131 -43q10 37 -21 62q55 47 127 33q78 -16 80 -84zM678 985q-16 43 -66 47q-23 2 -43 -11t-20 -34 q0 -43 61 -43q39 0 68 41z" />
<glyph unicode="&#xe2d;" horiz-adv-x="757" d="M686 205q0 -51 -23.5 -92t-65.5 -69t-97.5 -42t-120.5 -14q-131 0 -215 53q-92 59 -92 164v170q0 72 52 118t134 48q86 2 141.5 -32t55.5 -93q0 -35 -24.5 -58.5t-61.5 -23.5t-61.5 23.5t-24.5 58.5q0 23 10 39q-37 -14 -37 -70v-190q0 -104 123 -105q123 0 123 105v434 q0 43 -37 71.5t-86 30.5q-53 2 -86 -19.5t-33 -49.5q0 -35 23 -46q-53 -47 -117 -47q-41 0 -74 22.5t-33 61.5q0 72 99 123q102 55 221 55q121 0 209 -55q98 -63 98 -162v-409v0z" />
<glyph unicode="&#xe2e;" horiz-adv-x="757" d="M725 817q4 -68 -61 -117q23 -41 22 -79v-416q0 -51 -23.5 -92t-65.5 -69t-97.5 -42t-120.5 -14q-131 0 -215 53q-92 59 -92 164v160q0 72 52 117.5t134 47.5q86 2 141.5 -31.5t55.5 -92.5q0 -35 -24.5 -58.5t-61.5 -23.5t-61.5 23.5t-24.5 58.5q0 23 10 38 q-37 -14 -37 -69v-180q0 -104 123 -105q123 0 123 105v383q-70 -31 -187 -31q-123 0 -188.5 35.5t-65.5 95.5q0 66 89 115q90 49 208 47q88 0 170 -31q16 35 -10 70q39 27 88 26q47 0 82 -24.5t37 -63.5zM467 700q-37 37 -139 37q-43 0 -78 -14t-35 -35q0 -35 117 -33 q86 2 135 45z" />
<glyph unicode="&#xe2f;" horiz-adv-x="671" d="M416 0v582q-53 -37 -156 -41q-92 -4 -156 39q-70 43 -73 116q-2 51 31.5 87t80.5 36q35 0 61.5 -25.5t26.5 -58.5q0 -53 -55 -76q29 -20 84 -16q156 14 156 176h184v-819h-184z" />
<glyph unicode="&#xe30;" horiz-adv-x="593" d="M541 684q2 -37 -15.5 -70.5t-51.5 -60.5t-82 -44t-103 -20q-90 -2 -168 33q-82 41 -90 109q-8 55 24.5 91t83.5 36q90 0 92 -80q4 -49 -43 -74q31 -16 78 -12q100 8 101 72q0 33 -27 53q47 53 123 43t78 -76zM541 256q2 -37 -15.5 -70.5t-51.5 -60.5t-82 -44.5 t-103 -19.5q-90 -2 -168 33q-82 41 -90 109q-8 55 24.5 91t83.5 36q90 0 92 -80q4 -49 -43 -74q31 -16 78 -12q100 8 101 72q0 33 -27 53q47 53 123 43t78 -76z" />
<glyph unicode="&#xe31;" d="M57 1157q2 -76 -75 -137q-82 -61 -207 -64q-104 -2 -189 35q-92 45 -100 113q-8 55 24.5 91t83.5 36q88 0 93 -80q2 -49 -43 -74q37 -23 110 -20q119 4 129 80q4 35 -26 53q45 53 123 43q75 -10 77 -76z" />
<glyph unicode="&#xe32;" horiz-adv-x="634" d="M379 0v645q0 84 -94 86q-86 4 -90 -49q-2 -27 24 -35q-51 -49 -110 -49q-41 0 -68 20q-35 23 -33 58q0 31 22.5 58.5t59.5 49t88 34.5t109 13q123 0 199.5 -51t76.5 -145v-635h-184z" />
<glyph unicode="&#xe33;" horiz-adv-x="634" d="M2 1112q0 -68 -49 -117t-117 -49t-115 49t-47 117t47.5 115t114.5 47q68 0 117 -47t49 -115zM379 0v645q0 84 -94 86q-86 4 -90 -49q-2 -27 24 -35q-51 -49 -110 -49q-41 0 -68 20q-35 23 -33 58q0 31 22.5 58.5t59.5 49t88 34.5t109 13q123 0 199.5 -51t76.5 -145v-635 h-184zM-102 1112q0 25 -18.5 43.5t-43.5 18.5t-43 -18.5t-18 -43.5t18.5 -43t42.5 -18q25 0 43.5 18t18.5 43z" />
<glyph unicode="&#xe34;" d="M-51 922q-139 86 -385 86q-170 0 -305 -45q29 117 123 186.5t225 69.5q147 0 243 -82q99 -82 99 -215zM-227 1053q-33 82 -152 86q-96 2 -149 -66q55 14 118 14q97 1 183 -34z" />
<glyph unicode="&#xe35;" d="M-72 922q-137 88 -383 88q-164 0 -305 -47q27 117 121 186.5t225 69.5q98 0 158 -31v88h184v-354v0zM-246 1053q-33 82 -151 86q-98 4 -152 -66q55 14 121 14q96 1 182 -34z" />
<glyph unicode="&#xe36;" d="M-41 1159q0 -80 -72 -110q29 -61 29 -127q-139 86 -385 86q-170 0 -305 -45q29 117 123 186.5t225 69.5q78 0 143 -25q27 88 119 88q51 0 87 -36t36 -87zM-123 1159q0 41 -41 41t-41 -41t41 -41t41 41zM-260 1053q-33 82 -152 86q-96 2 -149 -66q55 14 119 14 q96 1 182 -34z" />
<glyph unicode="&#xe37;" d="M-72 922q-137 88 -383 88q-164 0 -305 -47q27 117 121 186.5t225 69.5h15v57h102v-70q31 -2 61 -18v88h164v-354v0zM-246 1053q-33 82 -151 86q-98 4 -152 -66q55 14 121 14q96 1 182 -34z" />
<glyph unicode="&#xe38;" d="M-256 -418v217q0 39 -37 39q10 -16 10 -37q0 -33 -24.5 -54t-61.5 -21t-61.5 21.5t-24.5 53.5q0 45 53.5 84t139.5 39t138 -35.5t52 -91.5v-215h-184z" />
<glyph unicode="&#xe39;" d="M-72 -315q0 -59 -54 -91t-140 -32q-195 0 -195 123v116q0 37 -28 37q10 -16 10 -37q0 -33 -24.5 -54t-61.5 -21t-61.5 21.5t-24.5 53.5q0 43 47 80t123 37q164 0 164 -113v-135q0 -29 30 -28q31 0 31 28v240h184v-225v0z" />
<glyph unicode="&#xe3a;" d="M-59 -186q0 -41 -32 -73t-73 -32t-72.5 32t-31.5 73t31.5 72.5t72.5 31.5t73 -31.5t32 -72.5z" />
<glyph unicode="&#xe3f;" horiz-adv-x="991" d="M920 276q0 -106 -91 -180q-109 -90 -319 -96v-135h-82v135h-403v37q76 10 96 22q33 20 33 84v717q0 68 -39 88q-25 14 -90 19v37h403v112h82v-112q358 -6 358 -238q0 -104 -92 -166q-35 -23 -137 -57v-2q115 -18 186 -76q95 -74 95 -189zM623 768q0 190 -152 190 q-80 0 -80 -71v-334q145 0 191 51q41 45 41 164zM664 270q0 240 -228 240h-45v-373q0 -90 90 -90q183 0 183 223z" />
<glyph unicode="&#xe40;" horiz-adv-x="454" d="M455 115q0 -59 -58.5 -94t-144.5 -31t-133 48t-47 118v663h184v-674q0 -70 37 -69q-10 16 -10 39q0 35 24.5 58.5t61.5 23.5t61.5 -23.5t24.5 -58.5z" />
<glyph unicode="&#xe41;" horiz-adv-x="874" d="M874 115q0 -59 -58 -94t-144 -31t-133 48t-47 118v663h184v-674q0 -70 37 -69q-10 16 -11 39q0 35 25 58.5t61 23.5q37 0 61.5 -23.5t24.5 -58.5zM455 115q0 -59 -58.5 -94t-144.5 -31t-133 48t-47 118v663h184v-674q0 -70 37 -69q-10 16 -10 39q0 35 24.5 58.5 t61.5 23.5t61.5 -23.5t24.5 -58.5z" />
<glyph unicode="&#xe42;" horiz-adv-x="557" d="M557 115q0 -59 -58.5 -94t-144.5 -31t-133 48t-47 118v852q0 113 -313 120q25 117 102.5 178.5t188.5 61.5q47 0 108 -20q66 -18 107 -19q82 0 145 51q2 -10 3 -22t1 -25q0 -72 -41 -119t-115 -43q-39 2 -100 37q-59 35 -104 39q-63 2 -90 -47q115 -12 198 -63 q94 -55 94 -131v-861q0 -70 37 -69q-10 16 -10 39q0 35 24.5 58.5t61.5 23.5t61.5 -23.5t24.5 -58.5z" />
<glyph unicode="&#xe43;" horiz-adv-x="557" d="M557 115q0 -59 -58.5 -94t-144.5 -31t-133 48t-47 118v907q0 45 39 84q41 41 41 67q0 37 -38 59.5t-93 22.5q-51 0 -89 -24.5t-38 -54.5q0 -29 16 -39q12 59 80 59q74 0 74 -82q0 -37 -41 -68.5t-100 -31.5q-68 0 -119 42t-51 101q0 84 86 139t200 56q133 0 217 -52 q80 -49 80 -118q0 -23 -41 -70q-39 -45 -39 -106v-902q0 -70 37 -69q-10 16 -10 39q0 35 24.5 58.5t61.5 23.5t61.5 -23.5t24.5 -58.5z" />
<glyph unicode="&#xe44;" horiz-adv-x="557" d="M557 115q0 -59 -58.5 -94t-144.5 -31t-133 48t-47 118v907q0 66 41 100q43 37 43 56q0 27 -31 26q-72 0 -114 -88q-51 92 -142 92q-57 0 -121 -39q-2 82 46 127q39 37 102 37t121 -47q59 47 139 47t133 -47q47 -47 47 -98q0 -18 -41 -66q-39 -41 -39 -98v-920 q0 -70 37 -69q-10 16 -10 39q0 35 24.5 58.5t61.5 23.5t61.5 -23.5t24.5 -58.5z" />
<glyph unicode="&#xe45;" horiz-adv-x="634" d="M379 -307v952q0 84 -94 86q-86 4 -90 -49q-2 -27 24 -35q-51 -49 -110 -49q-41 0 -68 20q-35 23 -33 58q0 31 22.5 58.5t59.5 49t88 34.5t109 13q123 0 199.5 -51t76.5 -145v-942h-184z" />
<glyph unicode="&#xe46;" horiz-adv-x="706" d="M451 -307v962q0 57 -60 58q-45 0 -67 -43q-14 51 -91 51q-29 0 -50 -16.5t-21 -38.5q0 -27 22 -39q27 39 72 39q35 0 61.5 -26t26.5 -60q0 -39 -37 -69t-94 -30q-74 0 -128 48.5t-54 115.5q0 37 15 71t42 58.5t61.5 38.5t73.5 14q84 0 111 -39q37 41 125 41q78 0 127 -44 t49 -117v-975h-184z" />
<glyph unicode="&#xe47;" d="M-76 1217q0 -80 -180 -66q-20 2 -37.5 3t-34.5 1q-137 0 -139 -63q-4 -43 51 -43q68 0 82 57q16 -53 74 -66q-2 2 -2 13q0 29 23.5 50t58.5 21q39 0 63.5 -24.5t24.5 -52.5q0 -41 -35 -71t-88 -32q-72 -2 -111 39q-49 -37 -112 -41q-86 -4 -138.5 40t-50.5 110 q2 70 75 113.5t198 39.5q39 -2 64.5 -1t39.5 3q68 8 72 58q102 -22 102 -88z" />
<glyph unicode="&#xe48;" d="M-256 1337v226h184v-226h-184z" />
<glyph unicode="&#xe49;" d="M33 1546q4 -102 -107 -164q-100 -57 -254 -57q-55 0 -102 8q96 51 88 152q-4 35 -35 59q12 -20 12 -37q0 -27 -24.5 -48t-54.5 -21q-74 0 -74 75q0 39 42 71t99 32q63 0 104.5 -38t41.5 -95q0 -35 -17 -62q53 6 83 42t30 79t-29 76q43 14 84 14q111 0 113 -86z" />
<glyph unicode="&#xe4a;" d="M29 1487q-6 -78 -82 -121q-80 -45 -219 -35q43 45 45 111q4 68 -33 69q-29 4 -43 -30q-16 31 -39 30q-41 0 -41 -61q0 -43 16 -70v9q0 53 54 53q55 0 55 -53q0 -27 -24.5 -46.5t-63.5 -19.5q-61 0 -99 38t-38 95q0 51 36.5 91t90.5 40q47 0 61 -33q20 33 64 33 q53 0 84.5 -38t31.5 -83t-18 -67q47 35 47 92q0 49 -39 74q31 12 62 12q102 0 92 -90z" />
<glyph unicode="&#xe4b;" d="M-82 1423v-86h-164v86h-92v95h92v86h164v-86h92v-95h-92z" />
<glyph unicode="&#xe4c;" d="M-4 1561q0 -61 -146 -56q-117 4 -120 -67q-4 -47 43 -52q-6 10 -6 23q0 57 63 57q72 0 72 -65q0 -35 -39 -61.5t-92 -28.5q-70 -2 -118 32.5t-48 94.5q0 57 53 92t141 35q117 0 113 65q84 -16 84 -69z" />
<glyph unicode="&#xe4d;" d="M2 1112q0 -68 -49 -117t-117 -49t-115 49t-47 117t47.5 115t114.5 47q68 0 117 -47t49 -115zM-102 1112q0 25 -18.5 43.5t-43.5 18.5t-43 -18.5t-18 -43.5t18.5 -43t42.5 -18q25 0 43.5 18t18.5 43z" />
<glyph unicode="&#xe4e;" />
<glyph unicode="&#xe4f;" horiz-adv-x="1003" d="M922 410q0 -174 -123 -297t-297 -123t-297 123t-123 297t123 297t297 122q174 0 297 -122q123 -123 123 -297zM860 410q0 147 -106 252q-104 106 -252 106q-147 0 -254 -106q-104 -104 -105 -252q0 -145 105 -254q109 -104 254 -105q147 0 252 105q106 107 106 254z M758 410q0 -106 -76 -183q-74 -74 -180 -73q-104 0 -183 73q-74 78 -73 183q0 106 73 180q76 76 183 76q106 0 180 -76q76 -74 76 -180z" />
<glyph unicode="&#xe50;" horiz-adv-x="778" d="M727 307q0 -131 -96 -227q-94 -92 -242 -92q-145 0 -242 92q-96 96 -96 227q0 133 96 223q98 92 242 93q143 0 240 -91q98 -88 98 -225zM528 307q0 86 -39.5 141.5t-99.5 55.5q-59 0 -99 -55.5t-40 -141.5t40 -141t99 -55t99 55t40 141z" />
<glyph unicode="&#xe51;" horiz-adv-x="778" d="M729 285q0 -119 -66.5 -209t-183.5 -121h-73q78 82 106 172q16 57 20 176q2 80 -28 143q-37 74 -105 74q-78 0 -116 -69q-37 -63 -35 -162q4 -139 53 -166v4q0 35 27.5 60.5t64.5 25.5q41 0 66.5 -25.5t25.5 -60.5q0 -59 -51 -99t-121 -40q-123 0 -194 90q-68 84 -68 217 q0 135 101 233q102 98 249 99q143 0 236 -101q92 -100 92 -241z" />
<glyph unicode="&#xe52;" horiz-adv-x="888" d="M72 0v567q0 88 -29 129q-20 31 -86 49q66 88 164 84q135 -2 135 -159v-553h377v346q0 47 -35 47q-14 0 -27.5 -15.5t-13.5 -25.5h-12q-8 43 -51 43q-25 0 -42.5 -27.5t-17.5 -60.5q0 -47 12 -76q29 37 72 37q35 0 61.5 -25.5t26.5 -58.5q0 -39 -37 -68.5t-92 -29.5 q-86 0 -142 59.5t-56 153.5q0 80 53 145q53 66 125 66t104 -43q41 43 109 43q147 0 147 -164v-463h-745z" />
<glyph unicode="&#xe53;" horiz-adv-x="778" d="M522 0v420q0 61 -49 61q-51 0 -80 -78q-18 78 -71 78q-82 0 -86 -178q-2 -160 38 -192q16 -12 17 16q0 31 26 55q29 25 62 25q35 0 61.5 -24.5t26.5 -57.5q0 -53 -48 -93t-126 -40q-123 0 -189 104q-53 90 -53 228q0 117 62 204q66 98 163 99q86 0 119 -49q47 53 135 49 q78 -2 127.5 -57.5t49.5 -129.5v-440h-185z" />
<glyph unicode="&#xe54;" horiz-adv-x="757" d="M766 727q0 -82 -92 -123q-23 -10 -76 -24.5t-139 -34.5q-217 -49 -217 -223q0 -84 41 -138q35 -49 79 -49q16 0 31 8q-20 43 -20 97q0 76 43 125t114 49q43 0 72 -27t29 -63q0 -35 -28 -61.5t-64 -26.5q-27 0 -39 4q2 -27 21.5 -53.5t41.5 -34.5q23 -6 84 -7 q55 -4 70 -14q33 -20 33 -72q0 -35 -19 -71q-31 12 -131 12q-84 4 -123 39q-61 -43 -149 -43q-125 0 -201 94q-76 88 -76 213q0 119 75 207t198 108q45 8 72.5 12.5t41.5 8.5q131 35 131 106q0 31 -30 58q53 41 116 31q111 -15 111 -107z" />
<glyph unicode="&#xe55;" horiz-adv-x="757" d="M786 727q0 -78 -98 -119q-23 -8 -57 -16q-29 -8 -71 -19.5t-99 -27.5q-219 -61 -219 -223q0 -84 41 -138q35 -49 79 -49q16 0 31 8q-20 43 -20 97q0 76 43 125t114 49q43 0 72 -27t29 -63q0 -35 -28 -61.5t-64 -26.5q-27 0 -39 4q2 -27 21.5 -53.5t41.5 -34.5 q23 -6 84 -7q55 -4 70 -14q33 -20 33 -72q0 -35 -19 -71q-27 8 -133 12q-82 2 -121 39q-61 -43 -149 -43q-125 0 -201 94q-76 88 -76 213q0 217 213 301q-35 35 -35 84q0 53 45 93t117 42t117 -38t45 -97q0 -8 -2 -16q63 6 63 57q0 49 -49 70q16 16 54 27.5t67 7.5 q100 -15 100 -107zM436 686q0 43 -47 43t-47 -43t47 -43t47 43z" />
<glyph unicode="&#xe56;" horiz-adv-x="702" d="M651 336q0 -160 -86 -253t-239 -93q-111 0 -193 63t-82 148q0 47 27.5 75.5t68.5 28.5q37 0 65 -26.5t28 -61.5q0 -41 -23 -63q35 -47 105 -48q72 0 108 64q35 53 31 139q-4 84 -39 135q-45 61 -125 62q-109 0 -217 -80q-2 246 -117 344q66 61 148 59q57 -2 84.5 -68.5 t21.5 -158.5q72 33 137 33q135 0 215 -86q82 -84 82 -213z" />
<glyph unicode="&#xe57;" horiz-adv-x="1038" d="M993 764q-43 -6 -43 -76q0 -23 3 -57.5t12 -79.5q16 -94 16 -137q0 -199 -133 -314q-121 -102 -307 -102h-26.5t-25.5 2q55 111 56 307q0 172 -72 172q-53 0 -78 -76q-16 78 -73 78q-82 0 -86 -178q-2 -160 38 -192q16 -12 17 16q0 31 26 55q29 25 62 25q35 0 61.5 -24.5 t26.5 -57.5q0 -53 -45 -92q-53 -41 -127 -41q-121 0 -186 104q-57 88 -58 228q0 117 60 206q66 96 165 97q86 0 119 -49q53 53 135 49q100 -4 156.5 -90t52.5 -222q-2 -84 -24 -168q84 53 84 224q0 39 -6 78q-4 31 -10.5 61.5t-10.5 60.5q-12 78 -12 125q0 133 106 135 q96 5 127 -67z" />
<glyph unicode="&#xe58;" horiz-adv-x="860" d="M819 729q-2 -82 -129 -135q-43 -16 -211 -62q-240 -61 -239 -239q0 -68 32.5 -120t81.5 -52q72 0 105 82q25 -106 108 -97q68 8 64 111q-4 78 -37 109q0 -4 2 -11v-14q0 -33 -26.5 -58.5t-61.5 -25.5t-61.5 25.5t-26.5 58.5q0 57 56 96t136 37q82 -2 142 -72 q57 -66 57 -151q0 -43 -16.5 -82t-44 -68.5t-66.5 -49t-86 -21.5q-96 -4 -152 47q-66 -47 -143 -47q-111 0 -180 88q-72 90 -72 205q0 121 76 209q74 80 180 112q47 10 94.5 18.5t94.5 18.5q129 31 137 88q4 31 -31 72q53 35 115 30q104 -8 102 -102z" />
<glyph unicode="&#xe59;" horiz-adv-x="974" d="M1036 766q-80 -33 -75 -193q4 -133 -23 -190q-29 -68 -100 -92q-96 -35 -254 -19q39 70 39 154q0 72 -39 72q-27 0 -42.5 -33t-9.5 -59q18 -84 68 -183q53 -109 109 -143q-66 -86 -138 -84q-68 4 -180 326q-70 193 -98 192q-63 0 -57 -195q6 -168 45 -215q-2 6 -2 19 q0 33 26.5 58.5t61.5 25.5t61.5 -25.5t26.5 -58.5q0 -57 -48.5 -95t-117.5 -38q-119 0 -185 108q-49 86 -53 236q-2 301 236 301q135 0 182 -78q53 80 154 78q131 -2 131 -168q0 -37 -6 -80q49 39 43 217q-10 221 118 225q92 3 127 -63z" />
<glyph unicode="&#xe5a;" />
<glyph unicode="&#xe5b;" />
<glyph unicode="&#x2000;" horiz-adv-x="816" />
<glyph unicode="&#x2001;" horiz-adv-x="1632" />
<glyph unicode="&#x2002;" horiz-adv-x="816" />
<glyph unicode="&#x2003;" horiz-adv-x="1632" />
<glyph unicode="&#x2004;" horiz-adv-x="544" />
<glyph unicode="&#x2005;" horiz-adv-x="408" />
<glyph unicode="&#x2006;" horiz-adv-x="272" />
<glyph unicode="&#x2007;" horiz-adv-x="272" />
<glyph unicode="&#x2008;" horiz-adv-x="204" />
<glyph unicode="&#x2009;" horiz-adv-x="326" />
<glyph unicode="&#x200a;" horiz-adv-x="90" />
<glyph unicode="&#x200c;" horiz-adv-x="307" />
<glyph unicode="&#x200d;" horiz-adv-x="432" />
<glyph unicode="&#x200e;" horiz-adv-x="686" />
<glyph unicode="&#x200f;" horiz-adv-x="712" />
<glyph unicode="&#x2010;" horiz-adv-x="512" d="M61 307v123h390v-123h-390z" />
<glyph unicode="&#x2011;" horiz-adv-x="512" d="M61 307v123h390v-123h-390z" />
<glyph unicode="&#x2012;" horiz-adv-x="512" d="M61 307v123h390v-123h-390z" />
<glyph unicode="&#x2013;" horiz-adv-x="778" d="M0 315v123h778v-123h-778z" />
<glyph unicode="&#x2014;" horiz-adv-x="1556" d="M0 315v123h1556v-123h-1556z" />
<glyph unicode="&#x2018;" horiz-adv-x="399" d="M328 745q0 -49 -34 -81.5t-85 -32.5q-57 0 -97 41t-40 104q0 80 51 156q43 66 94 92l68 -29q-72 -55 -90 -139q4 2 20 2q45 0 79 -34t34 -79z" />
<glyph unicode="&#x2019;" horiz-adv-x="399" d="M328 879q0 -78 -52 -154q-43 -68 -94 -94l-67 28q72 55 90 140q-4 -2 -21 -2q-45 0 -78.5 33.5t-33.5 78.5q0 49 33.5 82t84.5 33q57 0 97.5 -41t40.5 -104z" />
<glyph unicode="&#x201a;" />
<glyph unicode="&#x201c;" horiz-adv-x="716" d="M645 745q0 -49 -33.5 -81.5t-85.5 -32.5q-57 0 -97 41t-40 104q0 80 51 156q43 66 95 92l67 -29q-72 -55 -90 -139q4 2 20 2q45 0 79 -34t34 -79zM328 745q0 -49 -34 -81.5t-85 -32.5q-57 0 -97 41t-40 104q0 80 51 156q43 66 94 92l68 -29q-72 -55 -90 -139q4 2 20 2 q45 0 79 -34t34 -79z" />
<glyph unicode="&#x201d;" horiz-adv-x="716" d="M645 879q0 -78 -51 -154q-43 -68 -94 -94l-68 28q72 55 90 140q-4 -2 -20 -2q-45 0 -79 33.5t-34 78.5q0 49 34 82t85 33q57 0 97 -41t40 -104zM328 879q0 -78 -52 -154q-43 -68 -94 -94l-67 28q72 55 90 140q-4 -2 -21 -2q-45 0 -78.5 33.5t-33.5 78.5q0 49 33.5 82 t84.5 33q57 0 97.5 -41t40.5 -104z" />
<glyph unicode="&#x201e;" />
<glyph unicode="&#x2020;" />
<glyph unicode="&#x2021;" />
<glyph unicode="&#x2022;" horiz-adv-x="675" d="M594 410q0 -106 -76 -183q-74 -74 -180 -73q-104 0 -182 73q-74 78 -74 183q0 106 74 180q76 76 182 76t180 -76q76 -74 76 -180z" />
<glyph unicode="&#x2026;" horiz-adv-x="1484" d="M1362 104q0 -51 -37 -86.5t-90 -35.5t-89 34.5t-36 87.5q0 51 36 89t89 38t90 -37t37 -90zM866 104q0 -51 -35.5 -86.5t-89.5 -35.5q-53 0 -89 34.5t-36 87.5q0 51 36 89t89 38q51 0 88 -37t37 -90zM373 104q0 -51 -37 -86.5t-90 -35.5t-89 35.5t-36 86.5t37 89t88 38 q53 0 90 -37t37 -90z" />
<glyph unicode="&#x202f;" horiz-adv-x="326" />
<glyph unicode="&#x2030;" />
<glyph unicode="&#x2032;" />
<glyph unicode="&#x2033;" />
<glyph unicode="&#x2039;" />
<glyph unicode="&#x203a;" />
<glyph unicode="&#x2044;" />
<glyph unicode="&#x205f;" horiz-adv-x="408" />
<glyph unicode="&#x20ac;" />
<glyph unicode="&#x2113;" />
<glyph unicode="&#x2122;" />
<glyph unicode="&#x2126;" />
<glyph unicode="&#x212e;" />
<glyph unicode="&#x2202;" />
<glyph unicode="&#x2206;" />
<glyph unicode="&#x220f;" />
<glyph unicode="&#x2211;" />
<glyph unicode="&#x2212;" horiz-adv-x="778" d="M0 315v123h778v-123h-778z" />
<glyph unicode="&#x221a;" />
<glyph unicode="&#x221e;" />
<glyph unicode="&#x222b;" />
<glyph unicode="&#x2248;" />
<glyph unicode="&#x2260;" />
<glyph unicode="&#x2264;" />
<glyph unicode="&#x2265;" />
<glyph unicode="&#x25ca;" />
<glyph unicode="&#x25cc;" />
<glyph unicode="&#x25fc;" horiz-adv-x="686" d="M0 686h686v-686h-686v686z" />
<glyph unicode="&#xf700;" horiz-adv-x="716" d="M461 0q0 154 -109 225q-27 -33 -73 -32q-39 0 -67 25.5t-28 62.5q0 41 34 69.5t87 28.5q92 0 156 -82v102q0 61 -71 97t-183 36q-86 0 -187 -22q16 141 113 231q102 92 219 90q27 -2 54.5 -7t60.5 -15q59 -16 90 -21q47 -2 70 64q33 -45 32 -94q0 -49 -33.5 -83 t-90.5 -34q-43 0 -123 33q-74 31 -121 24q-80 -10 -103 -77q131 12 236 -3q221 -27 221 -206v-412h-184z" />
<glyph unicode="&#xf701;" d="M-297 922q-139 86 -385 86q-170 0 -305 -45q29 117 123 186.5t225 69.5q147 0 244 -82q98 -82 98 -215zM-473 1053q-33 82 -152 86q-96 2 -149 -66q55 14 119 14q96 1 182 -34z" />
<glyph unicode="&#xf702;" d="M-317 922q-137 88 -383 88q-164 0 -306 -47q27 117 121 186.5t226 69.5q98 0 157 -31v88h185v-354v0zM-492 1053q-33 82 -151 86q-98 4 -152 -66q55 14 121 14q96 1 182 -34z" />
<glyph unicode="&#xf703;" d="M-287 1159q0 -80 -71 -110q29 -61 28 -127q-139 86 -385 86q-170 0 -305 -45q29 117 123 186.5t225 69.5q78 0 144 -25q27 88 118 88q51 0 87 -36t36 -87zM-369 1159q0 41 -41 41t-41 -41t41 -41t41 41zM-506 1053q-33 82 -151 86q-96 2 -150 -66q55 14 119 14 q96 1 182 -34z" />
<glyph unicode="&#xf704;" d="M-317 922q-137 88 -383 88q-164 0 -306 -47q27 117 121 186.5t226 69.5h14v57h102v-70q31 -2 62 -18v88h164v-354v0zM-492 1053q-33 82 -151 86q-98 4 -152 -66q55 14 121 14q96 1 182 -34z" />
<glyph unicode="&#xf705;" d="M-502 942v287h185v-287h-185z" />
<glyph unicode="&#xf706;" d="M-258 1165q4 -111 -115 -176q-109 -59 -274 -59q-53 0 -105 6q104 59 93 164q-2 37 -35 61q12 -18 12 -37q0 -29 -25.5 -51t-58.5 -22q-80 0 -80 77q0 43 45 77t107 34q66 0 109.5 -41t43.5 -100q0 -45 -14 -68q55 8 87 46t32 85t-33 80q53 16 92 16q115 0 119 -92z" />
<glyph unicode="&#xf707;" d="M-262 1139q-10 -88 -86 -142q-84 -55 -227 -55h-28.5t-31.5 2q51 53 55 135q4 86 -41 88q-33 2 -53 -37q-16 37 -47 37q-51 0 -51 -75q0 -57 18 -86v10q0 63 68 63t68 -63q0 -33 -31 -57.5t-78 -24.5q-76 0 -122 47t-46 119q0 31 12.5 60.5t33 51t49 35t61.5 13.5 q55 0 75 -39q25 39 80 39q66 0 105 -45.5t39 -102.5q0 -53 -21 -86q55 41 55 115q0 61 -47 92q43 16 76 16q53 0 86 -29.5t29 -80.5z" />
<glyph unicode="&#xf708;" d="M-410 1059v-117h-184v117h-113v115h113v116h184v-116h113v-115h-113z" />
<glyph unicode="&#xf709;" d="M-221 1231q0 -72 -172 -64q-139 6 -142 -80q-4 -51 50 -61q-6 12 -7 27q0 27 21.5 47t54.5 20q37 0 60.5 -23.5t23.5 -52.5q0 -43 -45 -73.5t-110 -32.5q-82 -2 -138.5 39t-56.5 110q0 68 62.5 109t166.5 41q137 0 131 76q101 -19 101 -82z" />
<glyph unicode="&#xf70a;" d="M-256 942v287h184v-287h-184z" />
<glyph unicode="&#xf70b;" d="M-6 1165q4 -111 -115 -176q-109 -59 -274 -59q-53 0 -105 6q104 59 92 164q-2 37 -34 61q12 -18 12 -37q0 -29 -25.5 -51t-58.5 -22q-80 0 -80 77q0 43 45 77t107 34q66 0 109.5 -41t43.5 -100q0 -45 -14 -68q55 8 87 46t32 85t-33 80q53 16 92 16q115 0 119 -92z" />
<glyph unicode="&#xf70c;" d="M-2 1139q-10 -88 -86 -142q-84 -55 -227 -55h-28.5t-31.5 2q51 53 56 135q4 86 -41 88q-33 2 -54 -37q-16 37 -47 37q-51 0 -51 -75q0 -57 18 -86v10q0 63 68 63t68 -63q0 -33 -31 -57.5t-78 -24.5q-76 0 -122 47t-46 119q0 31 12.5 60.5t33 51t49 35t61.5 13.5 q55 0 76 -39q25 39 79 39q66 0 105 -45.5t39 -102.5q0 -53 -21 -86q55 41 56 115q0 61 -48 92q43 16 76 16q53 0 86 -29.5t29 -80.5z" />
<glyph unicode="&#xf70d;" d="M-72 1059v-117h-184v117h-113v115h113v116h184v-116h113v-115h-113z" />
<glyph unicode="&#xf70e;" d="M8 1231q0 -72 -172 -64q-139 6 -141 -80q-4 -51 49 -61q-6 12 -6 27q0 27 21.5 47t54.5 20q37 0 60.5 -23.5t23.5 -52.5q0 -43 -45.5 -73.5t-110.5 -32.5q-82 -2 -138.5 39t-56.5 110q0 68 62.5 109t167.5 41q137 0 131 76q100 -19 100 -82z" />
<glyph unicode="&#xf70f;" horiz-adv-x="1126" d="M1055 197q0 -98 -84 -158q-76 -51 -193 -51t-192 51q-84 55 -84 158v428q0 49 -38 76.5t-91 27.5q-109 0 -137 -86q53 -27 86 -70q-66 -29 -66 -102v-326q0 -70 37 -69q-10 16 -10 39q0 35 24.5 58.5t61.5 23.5t61.5 -23.5t24.5 -58.5q0 -59 -58.5 -94t-144.5 -31 t-133 48t-47 118v311q0 70 67 106q-33 23 -104 48q29 98 122 154t216 56q68 0 125 -15t99 -44t65.5 -69.5t23.5 -94.5v-430q0 -88 92 -88t92 88v641h185v-622v0z" />
<glyph unicode="&#xf710;" d="M-160 1157q2 -76 -76 -137q-82 -61 -206 -64q-104 -2 -189 35q-92 45 -100 113q-8 55 24.5 91t83.5 36q88 0 93 -80q2 -49 -43 -74q37 -23 110 -20q119 4 129 80q4 35 -26 53q45 53 122 43q76 -10 78 -76z" />
<glyph unicode="&#xf711;" d="M-244 1112q0 -68 -49 -117t-117 -49t-114.5 49t-46.5 117t47 115t114 47q68 0 117 -47t49 -115zM-348 1112q0 25 -18.5 43.5t-43.5 18.5t-43 -18.5t-18 -43.5t18.5 -43t42.5 -18q25 0 43.5 18t18.5 43z" />
<glyph unicode="&#xf712;" d="M-281 1217q0 -80 -180 -66q-20 2 -37.5 3t-33.5 1q-137 0 -140 -63q-4 -43 51 -43q68 0 82 57q16 -53 74 -66q-2 2 -2 13q0 29 23.5 50t58.5 21q39 0 63.5 -24.5t24.5 -52.5q0 -41 -35 -71t-88 -32q-72 -2 -110 39q-49 -37 -113 -41q-86 -4 -138.5 40t-49.5 110 q2 70 74.5 113.5t197.5 39.5q39 -2 64.5 -1t39.5 3q68 8 72 58q102 -22 102 -88z" />
<glyph unicode="&#xf713;" d="M-502 1337v226h185v-226h-185z" />
<glyph unicode="&#xf714;" d="M-184 1546q4 -102 -107 -164q-100 -57 -254 -57q-55 0 -102 8q96 51 88 152q-4 35 -35 59q12 -20 12 -37q0 -27 -24.5 -48t-55.5 -21q-74 0 -73 75q0 39 42 71t99 32q63 0 104 -38t41 -95q0 -35 -16 -62q53 6 83 42t30 79t-29 76q43 14 84 14q109 0 113 -86z" />
<glyph unicode="&#xf715;" d="M-197 1487q-6 -78 -82 -121q-80 -45 -219 -35q43 45 45 111q4 68 -32 69q-29 4 -43 -30q-16 31 -39 30q-41 0 -41 -61q0 -43 16 -70v9q0 53 53 53q55 0 56 -53q0 -27 -24.5 -46.5t-63.5 -19.5q-61 0 -99.5 38t-38.5 95q0 51 37 91t90 40q47 0 62 -33q20 33 63 33 q53 0 85 -38t32 -83t-18 -67q47 35 47 92q0 49 -39 74q31 12 61 12q102 0 92 -90z" />
<glyph unicode="&#xf716;" d="M-328 1423v-86h-164v86h-92v95h92v86h164v-86h92v-95h-92z" />
<glyph unicode="&#xf717;" d="M-236 1561q0 -61 -145 -56q-117 4 -121 -67q-4 -47 43 -52q-6 10 -6 23q0 57 64 57q72 0 71 -65q0 -35 -39 -61.5t-92 -28.5q-70 -2 -118 32.5t-48 94.5q0 57 53.5 92t141.5 35q117 0 113 65q83 -16 83 -69z" />
<glyph unicode="&#xf718;" d="M-256 -752v217q0 39 -37 39q10 -16 10 -36q0 -33 -24.5 -54.5t-61.5 -21.5t-61.5 21.5t-24.5 54.5q0 45 53.5 83.5t139.5 38.5t138 -35.5t52 -91.5v-215h-184z" />
<glyph unicode="&#xf719;" d="M-72 -643q0 -59 -54 -91t-140 -32q-195 0 -195 123v117q0 37 -28 37q10 -16 10 -37q0 -33 -24.5 -54.5t-61.5 -21.5t-61.5 21.5t-24.5 54.5q0 43 47 79.5t123 36.5q164 0 164 -112v-135q0 -29 30 -29q31 0 31 29v239h184v-225v0z" />
<glyph unicode="&#xf71a;" d="M-59 -514q0 -41 -32 -72.5t-73 -31.5t-72.5 31.5t-31.5 72.5t31.5 72.5t72.5 31.5t73 -31.5t32 -72.5z" />
<glyph unicode="&#xf71b;" horiz-adv-x="851" d="M606 -369q-23 27 -51.5 50.5t-60.5 46.5q-55 -82 -177 -95q-39 -4 -75.5 3.5t-65.5 24.5t-46 43t-17 58q0 59 59 102.5t145 43.5q39 0 70 -8q0 41 -47 57q35 41 98 41q106 0 107 -111q0 -27 -6 -47q37 -23 57 -39v824q0 104 -119 104q-98 0 -127 -86q53 -27 86 -70 q-66 -29 -65 -102l4 -326q2 -150 -180 -155q-86 -4 -144.5 30.5t-58.5 94.5q0 35 24.5 58.5t61.5 23.5t61.5 -23.5t24.5 -58.5q0 -23 -10 -39q37 0 36 76l-4 315q0 70 68 106q-33 23 -104 48q29 98 116.5 154t210.5 56q135 0 219 -58t84 -165v-977h-174zM371 -205 q-31 25 -88 12q-55 -12 -47 -51q4 -16 30 -22q29 -4 47 4q48 14 58 57z" />
<glyph unicode="&#xf71c;" horiz-adv-x="851" d="M596 -369l-59 82l-64 -75q-10 10 -27.5 28.5t-42.5 44.5q-61 -68 -153 -67q-59 0 -100 32q-49 37 -50 101q0 55 47.5 92t112.5 37q29 0 59 -10q2 33 -32 51q35 31 92 30q33 0 53 -12q37 -23 37 -74q0 -35 -12 -55l22 -22l60 67l57 -67v811q0 104 -119 104q-98 0 -127 -86 q53 -27 86 -70q-66 -29 -65 -102l4 -326q2 -150 -180 -155q-86 -4 -144.5 30.5t-58.5 94.5q0 35 24.5 58.5t61.5 23.5t61.5 -23.5t24.5 -58.5q0 -23 -10 -39q37 0 36 76l-4 315q0 70 68 106q-33 23 -104 48q29 98 116.5 154t210.5 56q135 0 219 -58t84 -165v-977h-184z M303 -211q-20 33 -67 23q-49 -8 -46 -43q4 -41 56 -31q43 8 57 51z" />
<glyph unicode="&#xf71d;" horiz-adv-x="956" d="M946 899q4 -88 -90 -139q29 -45 29 -146v-614h-180l-160 424l-156 -424h-180v702q0 37 -37 33q10 -16 10 -39q0 -35 -24.5 -58.5t-61.5 -23.5t-61.5 24t-24.5 58q0 55 56.5 95t148.5 40q76 0 127 -37.5t51 -97.5v-157q0 -23 -5 -105t-15 -188h4l49 153l109 191h20 l113 -191q6 -20 18 -53t31 -100h4q-10 106 -15.5 188t-5.5 105v75v25q-2 10 -2 18q-37 -10 -73 -10q-80 -2 -136.5 38t-56.5 103q0 68 62 107q55 37 135 37q86 0 131 -43q10 37 -21 61q55 47 127 33q78 -16 80 -84zM678 786q-16 43 -66 48q-23 2 -43 -11.5t-20 -34.5 q0 -43 61 -43q39 0 68 41z" />
<glyph horiz-adv-x="638" />
<glyph />
<glyph horiz-adv-x="634" d="M379 0v645q0 84 -94 86q-86 4 -90 -49q-2 -27 24 -35q-51 -49 -110 -49q-41 0 -68 20q-35 23 -33 58q0 31 22.5 58.5t59.5 49t88 34.5t109 13q123 0 199.5 -51t76.5 -145v-635h-184zM-244 1112q0 -68 -49 -117t-117 -49t-114.5 49t-46.5 117t47 115t114 47q68 0 117 -47 t49 -115zM-348 1112q0 25 -18.5 43.5t-43.5 18.5t-43 -18.5t-18 -43.5t18.5 -43t42.5 -18q25 0 43.5 18t18.5 43z" />
</font>
</defs>
</svg>
